<svg xmlns="http://www.w3.org/2000/svg" width="230.000000pt" height="648.000000pt"
    viewBox="0 0 230.000000 648.000000" preserveAspectRatio="xMidYMid meet">
    <metadata>
        Created by potrace 1.16, written by Peter Selinger 2001-2019
    </metadata>
    <g transform="translate(0.000000,648.000000) scale(0.100000,-0.100000)" fill="#000000"
        stroke="none">
        <path d="M1210 6416 c-89 -33 -191 -127 -209 -193 -6 -21 -11 -73 -11 -115 0
-42 -5 -88 -11 -102 -7 -15 -9 -45 -4 -81 5 -47 13 -64 42 -94 l36 -36 -31 37
c-32 39 -52 130 -36 165 4 10 11 59 14 108 l6 90 2 -82 c1 -45 -3 -93 -9 -107
-7 -15 -9 -45 -4 -81 5 -46 14 -65 43 -98 20 -22 31 -37 24 -33 -10 6 -11 -6
-6 -61 4 -37 9 -70 12 -73 2 -3 2 24 -1 60 -6 79 7 49 17 -37 4 -39 3 -64 -3
-68 -7 -4 -8 1 -5 12 5 15 4 16 -5 3 -14 -20 -14 -43 1 -34 7 5 8 3 4 -5 -5
-7 -18 -16 -31 -21 -17 -6 -28 -24 -39 -62 -15 -51 -18 -55 -68 -76 -94 -38
-170 -62 -236 -73 -36 -5 -77 -17 -91 -25 -14 -8 -17 -12 -6 -8 11 4 43 11 70
17 81 15 185 47 259 78 38 16 71 28 73 26 11 -12 -258 -107 -303 -107 -35 0
-155 -48 -183 -73 -19 -17 -22 -17 -11 -3 8 11 29 27 45 38 17 10 25 18 18 18
-27 0 -85 -66 -128 -145 -25 -45 -45 -86 -45 -91 1 -5 10 8 21 29 11 20 22 37
24 37 3 0 -2 -15 -11 -32 -10 -18 -28 -64 -40 -103 -13 -38 -21 -54 -18 -35
11 62 -3 28 -34 -85 -37 -136 -81 -356 -69 -345 3 3 15 55 27 115 31 161 42
207 47 202 2 -3 -1 -24 -6 -48 -6 -24 -20 -93 -31 -154 -12 -60 -35 -161 -51
-224 -16 -63 -29 -133 -29 -155 0 -23 -4 -47 -9 -54 -12 -20 -1 96 15 152 8
27 14 57 13 65 0 9 -9 -13 -18 -49 -23 -82 -35 -204 -19 -194 7 5 8 3 4 -5 -5
-7 -10 -10 -14 -7 -9 9 -31 -27 -32 -52 0 -13 4 -32 10 -42 5 -10 12 -60 15
-111 3 -52 7 -112 10 -134 3 -31 2 -35 -4 -15 -5 14 -10 41 -12 60 -2 30 -3
31 -6 9 -5 -30 21 -139 43 -181 9 -17 20 -26 26 -22 7 4 8 3 4 -4 -10 -16 22
-74 36 -66 7 4 8 3 4 -4 -4 -6 0 -22 8 -34 8 -13 24 -56 37 -95 12 -40 25 -71
27 -68 2 2 -6 34 -18 70 -12 36 -20 68 -18 71 3 2 17 -36 32 -85 24 -76 33
-93 67 -120 21 -18 43 -40 49 -51 6 -11 -16 7 -50 40 -33 32 -60 55 -60 50 0
-5 18 -24 41 -42 23 -18 48 -46 55 -61 8 -15 19 -25 24 -22 5 3 12 0 16 -6 4
-8 3 -9 -4 -5 -27 17 -9 -13 30 -49 l43 -40 -35 40 -35 40 43 -40 c39 -36 53
-53 35 -42 -5 3 -8 -32 -9 -76 0 -45 -6 -161 -12 -257 -7 -96 -14 -249 -16
-340 l-4 -165 8 155 c12 226 30 493 40 590 l8 85 -4 -95 c-2 -52 -9 -162 -15
-245 -5 -82 -12 -238 -14 -345 -2 -107 -5 -263 -7 -346 -2 -84 -6 -147 -10
-140 -7 10 -3 193 7 296 3 31 1 39 -5 24 -4 -11 -10 -91 -12 -177 l-3 -156 30
-28 c26 -25 27 -25 10 -3 l-20 25 28 -24 c27 -24 36 -38 17 -26 -16 10 -12
-269 5 -340 8 -33 12 -44 9 -25 -3 19 -7 107 -8 195 l-3 160 7 -155 c8 -170
11 -191 69 -395 22 -77 38 -141 36 -143 -2 -2 -13 29 -25 70 -27 94 -38 126
-39 112 -2 -28 122 -392 159 -464 11 -22 25 -38 30 -35 5 3 12 0 16 -6 4 -8 3
-9 -4 -5 -8 5 -12 -1 -12 -16 0 -17 3 -19 9 -9 11 17 11 16 46 -144 15 -66 31
-124 36 -130 15 -15 11 -22 -26 -44 -20 -11 -35 -28 -34 -38 0 -14 2 -13 9 4
12 29 20 30 13 2 -5 -19 -3 -21 20 -17 28 5 27 17 12 -142 -5 -46 -3 -90 3
-114 9 -31 9 -37 -1 -27 -8 8 -12 49 -11 124 0 84 -1 100 -7 62 -18 -127 -4
-196 50 -232 29 -19 47 -23 117 -23 90 0 90 0 85 -58 -3 -37 49 -52 176 -51
154 1 195 8 210 39 8 16 13 19 13 9 0 -9 -9 -24 -21 -35 -19 -17 -38 -19 -179
-19 -95 0 -152 -3 -143 -9 9 -5 80 -6 159 -4 132 4 146 6 168 27 13 12 26 36
30 52 6 34 -9 83 -24 74 -5 -3 -7 0 -4 8 3 8 0 18 -7 23 -8 4 -10 3 -5 -4 11
-18 0 -14 -15 5 -10 11 -10 14 -1 9 17 -10 15 16 -4 40 -8 10 -13 13 -9 7 9
-18 0 -16 -16 4 -12 14 -12 16 0 8 11 -6 13 -4 7 11 -23 55 -29 96 -15 105 10
6 6 9 -15 9 -38 0 -30 7 13 12 33 4 35 7 47 59 20 82 14 94 -6 14 -10 -38 -19
-61 -19 -50 0 32 37 173 39 145 2 -30 13 6 69 225 22 83 42 182 45 220 l5 70
-14 -87 c-17 -101 -67 -305 -90 -363 -19 -48 -15 -30 30 140 42 158 72 365 85
582 9 149 33 347 46 383 3 8 10 71 15 140 16 196 36 380 37 330 1 -25 -3 -81
-8 -125 -5 -44 -14 -138 -20 -210 -5 -71 -14 -144 -19 -162 -5 -18 -12 -63
-15 -100 l-5 -68 13 81 c8 44 17 90 20 101 4 12 11 74 16 140 5 65 18 215 29
333 23 235 26 341 5 165 l-13 -110 5 95 c9 175 43 434 73 560 17 69 35 161 40
205 l10 80 -5 -81 c-2 -44 -18 -136 -34 -204 -29 -118 -61 -341 -59 -405 1
-16 10 40 20 125 10 85 32 211 48 279 17 69 34 160 37 202 6 73 9 80 45 115
39 38 54 68 22 43 -15 -11 -14 -10 1 9 21 24 32 29 20 10 -5 -9 -2 -9 9 1 20
16 23 36 5 25 -9 -5 -9 -2 1 9 15 19 26 23 15 5 -10 -16 46 24 68 49 10 10 26
57 38 103 23 98 24 114 8 104 -7 -4 -8 -3 -4 5 4 6 11 9 16 6 11 -7 33 32 26
44 -3 5 2 15 12 22 16 13 16 12 3 -6 -7 -11 0 -5 17 14 17 18 28 39 26 45 -2
6 2 29 11 51 14 36 14 18 0 -32 -3 -10 2 -2 11 17 9 19 18 57 21 85 4 42 2 54
-17 75 l-22 25 16 -25 c9 -13 15 -43 15 -65 l-2 -40 -6 47 c-4 26 -16 57 -26
69 -11 12 -14 19 -7 15 7 -4 12 -1 12 9 0 10 -5 14 -12 10 -7 -4 -5 0 5 9 13
10 17 21 12 36 -8 24 -13 141 -6 134 3 -2 11 10 18 27 9 21 10 36 3 49 -6 10
-10 43 -11 72 -1 48 -36 214 -37 178 -1 -8 5 -42 13 -75 8 -33 14 -85 13 -115
-1 -52 -1 -51 -8 20 -4 41 -12 93 -18 115 -6 22 -20 85 -31 140 -11 55 -23
111 -26 125 -3 14 1 9 9 -10 7 -20 19 -68 26 -109 7 -40 14 -70 17 -68 6 7
-17 135 -33 180 -8 22 -23 94 -34 160 -11 67 -25 138 -32 157 -19 60 -88 191
-98 185 -5 -3 -12 0 -16 6 -4 8 -3 9 4 5 7 -4 12 -3 12 3 0 12 -54 57 -91 77
-45 23 -34 9 15 -20 25 -15 48 -31 51 -37 4 -5 -18 6 -48 25 -30 20 -101 54
-158 76 -126 51 -261 112 -256 117 2 2 38 -13 80 -32 99 -46 284 -118 272
-106 -6 5 -41 21 -80 36 -38 14 -111 44 -161 66 l-92 40 -12 50 c-7 28 -14 48
-17 45 -2 -2 0 -21 6 -42 6 -21 9 -40 6 -42 -3 -4 -10 17 -31 103 -4 14 -3 16
4 7 7 -11 10 -10 16 3 9 24 8 27 -6 19 -7 -4 -8 -3 -4 5 4 6 11 9 16 6 5 -3
14 4 20 16 20 36 80 230 79 253 -1 20 -2 20 -6 1 -10 -47 -75 -245 -82 -249
-4 -3 10 46 30 107 21 64 40 145 44 188 8 88 24 127 19 47 l-3 -53 8 53 c5 29
13 58 19 65 6 6 16 41 23 75 13 60 12 66 -8 100 -11 21 -26 37 -31 37 -6 0
-14 4 -19 9 -5 5 -3 6 5 2 8 -5 12 2 12 27 0 82 -148 158 -308 156 -42 0 -93
-6 -112 -13z m-537 -2141 c34 -183 44 -708 13 -697 -5 2 -12 -2 -16 -8 -5 -8
-9 -7 -13 5 -4 9 -3 13 3 10 17 -10 11 5 -27 76 -20 38 -39 65 -43 61 -3 -5
-14 1 -24 12 -12 12 -14 17 -5 14 12 -4 14 15 16 111 1 64 5 141 8 171 6 50 4
58 -20 85 -15 17 -24 24 -20 18 9 -18 0 -16 -16 4 -12 14 -12 16 0 9 9 -6 12
-5 9 4 -2 7 -12 14 -22 16 -28 4 -28 9 7 40 26 23 28 24 9 3 -12 -14 -22 -29
-22 -33 0 -4 16 11 35 34 38 46 45 60 18 39 -15 -11 -16 -11 -5 1 6 8 13 28
13 45 l1 30 8 -30 c8 -30 8 -30 9 8 1 28 -2 36 -11 31 -7 -4 -2 4 11 19 13 15
29 23 38 20 11 -4 14 1 13 18 -1 13 -1 42 0 64 2 31 5 25 11 -30 4 -38 14
-106 22 -150z m1159 146 c-2 -18 6 -51 21 -85 29 -63 28 -75 -2 -18 -11 20
-20 33 -21 29 0 -12 38 -85 49 -91 5 -4 8 -41 6 -84 l-4 -77 9 75 c6 52 5 79
-3 90 -9 13 -9 13 3 2 11 -9 15 -36 15 -91 0 -44 -3 -77 -7 -75 -13 8 -39 -56
-35 -84 4 -26 4 -26 6 4 0 16 8 39 17 50 15 18 15 18 5 -3 -15 -29 -14 -66 2
-82 8 -9 8 -12 0 -7 -8 5 -10 -21 -8 -101 5 -140 6 -145 25 -138 8 3 6 -3 -6
-12 -12 -10 -24 -25 -27 -33 -4 -11 -6 -9 -7 5 0 13 -6 5 -15 -20 -18 -50 -19
-70 0 -30 17 37 19 29 4 -14 -9 -25 -14 -30 -21 -19 -7 9 -8 5 -5 -15 2 -15
-1 -30 -7 -34 -6 -3 -8 -3 -4 1 3 4 2 22 -3 39 -15 52 -31 148 -34 207 -8 131
-7 368 0 381 5 7 12 54 16 104 7 92 13 127 24 145 10 16 12 12 7 -19z m-587
-1726 c22 -212 35 -762 19 -829 -8 -34 -13 -43 -14 -26 -1 14 -8 0 -15 -35
-17 -79 -48 -400 -43 -445 4 -29 5 -27 6 14 3 81 33 369 43 406 l9 35 -5 -38
c-2 -21 -11 -116 -19 -210 -33 -361 -46 -523 -47 -562 0 -32 -2 -36 -9 -19 -4
12 -21 31 -36 43 -14 11 -22 21 -17 21 5 0 14 -4 21 -10 9 -7 9 -7 2 2 -5 6
-7 30 -3 53 3 24 1 51 -5 61 -8 15 -9 10 -5 -22 3 -23 1 -49 -3 -57 -6 -11
-10 -1 -10 31 -1 26 -7 88 -14 137 -7 50 -13 124 -15 165 -1 41 -5 98 -8 125
-5 41 -4 45 4 20 5 -16 12 -75 14 -130 3 -55 9 -134 14 -175 l9 -75 -5 80 c-2
44 -6 119 -7 167 -3 74 -14 138 -40 243 -3 11 -4 -2 -1 -30 3 -34 1 -43 -5
-29 -4 11 -8 52 -8 90 1 38 -2 81 -6 94 -6 19 -5 21 3 10 6 -8 11 -28 12 -45
2 -26 2 -27 6 -6 5 25 -24 101 -38 101 -5 0 -13 10 -20 21 -7 14 -7 19 0 15
20 -13 65 74 72 138 4 34 15 88 23 121 10 34 18 113 21 180 l4 120 -8 -110
c-8 -115 -27 -219 -43 -245 -7 -12 -8 -11 -4 5 19 75 27 132 35 248 7 102 17
160 45 257 19 69 39 141 44 160 9 34 9 34 20 -31 17 -96 23 -182 32 -499 l8
-285 -4 320 c-4 289 -20 504 -38 534 -4 6 -4 28 1 48 4 21 8 29 9 18 2 -11 10
-87 19 -170z" />
    </g>
</svg>
