<svg xmlns="http://www.w3.org/2000/svg" width="280.000000pt" height="570.000000pt"
    viewBox="0 0 280.000000 570.000000" preserveAspectRatio="xMidYMid meet">
    <metadata>
        Created by potrace 1.16, written by Peter Selinger 2001-2019
    </metadata>
    <g transform="translate(0.000000,570.000000) scale(0.100000,-0.100000)" fill="#000000"
        stroke="none">
        <path d="M493 5660 c-73 -57 -107 -137 -106 -247 0 -60 -4 -83 -13 -87 -36
-14 12 -182 55 -193 13 -3 20 -17 25 -51 6 -46 6 -47 -51 -103 -51 -50 -67
-59 -133 -77 -41 -11 -104 -24 -139 -27 -79 -9 -104 -31 -120 -104 -13 -60
-14 -422 -1 -496 17 -102 49 -244 65 -290 20 -62 25 -305 7 -430 -7 -49 -16
-242 -19 -427 -6 -338 -6 -338 15 -338 17 0 22 -8 26 -48 14 -120 40 -265 62
-351 13 -52 33 -167 44 -255 l21 -161 -22 -205 c-18 -174 -20 -249 -17 -505
l4 -300 31 -102 31 -103 -14 -112 -14 -113 29 -75 c40 -102 46 -154 27 -210
-20 -58 -20 -110 0 -138 16 -24 44 -30 44 -9 1 6 7 -5 15 -26 17 -49 13 -46
76 -63 80 -21 194 -18 275 7 100 31 103 40 40 125 -43 58 -119 184 -111 184 3
0 19 -9 36 -19 18 -11 60 -27 95 -37 59 -16 70 -16 186 1 68 9 135 24 150 31
25 13 26 17 16 42 -20 46 -28 51 -114 78 -141 43 -237 122 -251 208 -5 30 -1
42 17 61 21 22 22 31 17 99 -5 53 -3 84 7 108 8 18 21 101 31 183 9 83 20 177
25 210 5 33 21 184 35 335 25 262 55 507 75 615 18 94 50 350 56 458 l7 107
28 0 c15 0 29 -5 31 -12 3 -7 9 -8 18 -3 10 6 12 38 6 159 -10 231 -36 581
-50 673 l-13 83 71 -5 c39 -3 88 -8 109 -11 49 -6 102 19 116 54 6 15 15 77
21 139 11 117 6 149 -29 188 -34 37 -100 208 -116 300 -9 50 -23 100 -31 112
-8 12 -14 31 -14 41 0 45 -54 94 -190 172 l-135 77 3 55 c3 40 -1 64 -13 82
-16 24 -16 29 14 118 18 51 39 99 47 107 14 12 15 38 9 200 -6 142 -11 192
-23 214 -9 15 -19 27 -22 27 -3 0 -14 16 -24 35 -30 55 -100 85 -202 85 -80 0
-82 -1 -131 -40z" />
        <path d="M1995 5679 c-129 -68 -163 -180 -166 -539 0 -124 2 -248 6 -277 12
-87 2 -116 -55 -151 -34 -21 -51 -40 -56 -59 -4 -15 -15 -39 -26 -52 -10 -13
-18 -32 -18 -43 0 -10 -11 -40 -24 -66 -23 -45 -38 -90 -67 -202 -6 -25 -20
-61 -29 -80 -10 -19 -34 -83 -54 -141 -56 -164 -49 -273 22 -342 37 -36 143
-87 182 -87 24 0 26 -26 4 -58 -9 -13 -29 -59 -45 -104 -17 -44 -35 -90 -40
-101 -6 -11 -11 -36 -11 -55 0 -41 -33 -155 -54 -187 -24 -36 -29 -254 -10
-360 29 -150 74 -329 142 -555 88 -290 95 -325 103 -475 6 -109 12 -140 35
-195 18 -44 30 -96 36 -161 6 -52 19 -144 30 -204 11 -60 20 -128 20 -152 0
-23 6 -60 14 -80 9 -23 17 -99 21 -192 4 -94 12 -167 20 -187 23 -55 28 -120
15 -191 -17 -90 -41 -135 -111 -209 -65 -67 -75 -102 -41 -144 23 -29 129 -39
199 -20 35 10 48 11 51 2 2 -8 39 -12 117 -12 108 0 115 1 144 26 21 18 33 38
37 66 4 22 13 42 20 45 10 4 14 24 14 68 0 46 8 86 31 147 29 78 39 154 24
178 -3 6 -15 42 -26 80 -15 56 -17 82 -11 125 11 66 2 125 -33 225 -14 41 -37
131 -51 200 -33 163 -51 231 -69 266 -8 16 -15 36 -15 44 0 8 -11 33 -25 55
-13 22 -25 48 -25 57 0 9 -12 31 -26 48 -26 30 -26 35 -20 109 9 112 47 246
122 432 137 342 161 425 209 729 10 58 23 117 31 131 7 15 16 46 19 70 4 24
11 54 17 65 6 12 9 40 6 62 l-3 40 96 26 c52 14 104 26 114 26 15 0 17 6 12
48 -6 45 -65 261 -129 466 -38 122 -35 170 14 281 20 45 44 116 53 160 16 69
16 92 6 184 -6 58 -11 124 -11 146 0 42 -25 169 -43 218 -6 16 -25 36 -46 46
-30 16 -43 35 -78 107 -44 92 -86 228 -109 349 -35 186 -86 288 -173 346 -42
27 -50 29 -145 29 -84 0 -108 -4 -141 -21z" />
    </g>
</svg>
