<svg xmlns="http://www.w3.org/2000/svg" width="280.000000pt" height="648.000000pt"
    viewBox="0 0 280.000000 648.000000" preserveAspectRatio="xMidYMid meet">
    <g transform="translate(0.000000,648.000000) scale(0.100000,-0.100000)" fill="#000000"
        stroke="none">
        <path d="M1263 6473 c-32 -6 -109 -97 -143 -169 -39 -80 -54 -155 -46 -223 4
-31 10 -84 14 -118 5 -41 15 -72 30 -90 29 -37 36 -53 64 -153 27 -100 28
-161 4 -213 -27 -56 -65 -77 -164 -93 -48 -7 -88 -13 -89 -14 -2 0 -12 -19
-24 -42 -18 -35 -22 -69 -30 -217 -18 -352 -71 -663 -136 -794 -13 -27 -46
-103 -72 -170 -89 -226 -149 -349 -228 -469 -31 -46 -42 -50 -128 -52 -58 -2
-81 -8 -135 -36 -36 -19 -90 -39 -120 -45 -51 -11 -55 -13 -58 -43 -3 -26 1
-32 20 -37 40 -9 112 1 155 23 23 12 51 22 62 22 19 0 19 -1 -4 -42 -33 -61
-41 -106 -20 -114 21 -9 65 12 65 30 0 25 47 53 109 65 54 11 65 17 113 69 75
82 151 185 259 352 51 80 107 165 125 190 39 54 48 75 86 200 l28 95 -3 -80
c-2 -44 -14 -136 -26 -205 -55 -317 -81 -505 -81 -577 0 -166 39 -322 201
-808 l120 -360 14 -195 c14 -199 20 -231 80 -425 19 -60 37 -126 40 -145 8
-46 -13 -693 -24 -745 -5 -22 -20 -83 -35 -135 -14 -52 -37 -148 -50 -212 -14
-65 -45 -181 -70 -259 -50 -152 -55 -198 -29 -225 15 -15 31 -16 126 -10 59 3
116 12 127 18 10 7 29 30 41 52 19 34 24 62 30 181 4 77 10 176 13 220 3 44 8
122 11 173 5 90 42 262 56 262 3 0 9 -19 13 -42 4 -23 14 -64 23 -91 13 -41
15 -78 10 -217 -7 -192 8 -281 65 -397 39 -80 67 -103 123 -103 37 0 48 5 74
35 17 20 31 48 32 63 3 119 -5 190 -38 321 -31 128 -35 153 -28 215 16 151 9
183 -65 281 -27 36 -31 52 -41 150 -6 61 -17 157 -25 215 -12 93 -12 116 2
205 13 83 14 155 9 420 l-6 320 30 175 c113 666 123 736 122 920 0 160 -6 222
-42 468 -15 109 -44 213 -85 310 -69 166 -67 152 -60 327 6 155 33 366 49 381
4 4 7 -3 7 -15 0 -49 96 -262 244 -541 19 -36 49 -99 67 -140 44 -105 107
-213 210 -366 92 -135 125 -164 186 -164 34 0 83 -32 108 -70 15 -23 26 -30
45 -28 37 4 36 35 -4 98 -32 50 -33 55 -16 58 11 2 40 -6 66 -17 32 -15 68
-21 115 -21 67 0 69 1 69 25 0 28 -33 49 -95 61 -22 4 -56 17 -75 30 -42 27
-106 43 -176 44 l-51 0 -45 98 c-53 113 -93 227 -141 402 -27 99 -44 141 -82
199 -96 148 -164 323 -246 635 -57 216 -67 242 -102 275 -21 19 -42 25 -110
31 -136 13 -187 52 -187 144 0 81 26 167 58 196 83 73 99 275 41 505 -39 151
-69 176 -210 174 -52 -1 -104 -4 -116 -6z" />
    </g>
</svg>
