<svg xmlns="http://www.w3.org/2000/svg" width="126.000000pt" height="243.000000pt"
    viewBox="0 0 126.000000 243.000000" preserveAspectRatio="xMidYMid meet">
    <metadata>
        Created by potrace 1.16, written by Peter Selinger 2001-2019
    </metadata>
    <g transform="translate(0.000000,243.000000) scale(0.100000,-0.100000)" fill="#000000"
        stroke="none">
        <path d="M234 2398 c-12 -15 -13 -18 -3 -10 12 9 10 0 -7 -35 -13 -27 -24 -68
-25 -93 l-2 -45 -4 39 c-3 21 3 56 11 77 9 21 14 39 11 39 -9 0 -35 -73 -35
-100 0 -19 -7 -30 -26 -38 -16 -8 -22 -17 -18 -25 4 -6 -2 -4 -13 6 -11 9 -27
17 -37 17 -9 0 -14 5 -11 10 3 6 1 10 -4 10 -18 0 -13 -58 8 -98 10 -20 30
-47 44 -60 l24 -23 -19 -39 c-25 -51 -33 -52 -13 -2 13 32 13 35 0 18 -8 -11
-15 -23 -15 -28 0 -4 -6 -8 -13 -8 -21 0 -49 -36 -44 -57 4 -16 5 -15 6 3 1
22 19 44 36 44 5 0 2 -5 -8 -11 -11 -7 -16 -20 -15 -39 3 -37 37 -53 104 -47
l49 3 -55 2 c-30 1 -61 6 -68 10 -7 5 16 6 50 4 76 -5 91 -19 84 -77 -5 -37
-5 -38 4 -10 6 17 8 41 5 55 -4 18 -3 21 4 11 5 -8 8 -39 6 -67 -3 -61 11 -74
47 -43 l23 20 -27 -17 c-38 -22 -35 -13 3 15 18 13 29 19 25 12 -15 -24 12
-10 40 21 24 28 25 30 4 13 -21 -16 -20 -14 4 13 l30 32 33 -81 c18 -45 35
-91 38 -103 5 -18 4 -18 -10 4 -9 14 -14 18 -12 10 2 -8 -1 -22 -9 -30 -9 -11
-10 -26 -3 -61 9 -42 48 -99 69 -99 15 0 24 -42 24 -121 1 -61 5 -81 20 -98
11 -12 26 -19 33 -16 8 2 12 1 9 -3 -2 -4 -1 -14 5 -22 7 -12 9 -9 10 10 l1
25 8 -26 c4 -14 11 -84 15 -155 4 -71 11 -133 15 -139 4 -5 13 -77 19 -160 6
-82 18 -181 26 -220 8 -38 15 -91 15 -117 0 -45 1 -48 28 -49 l27 -1 -25 -8
-25 -8 24 -1 c23 -1 23 -2 18 -73 -8 -91 0 -78 13 22 l9 75 -5 -80 c-3 -56 -9
-84 -20 -95 -9 -8 -14 -9 -10 -3 10 18 2 16 -47 -9 -23 -11 -52 -24 -64 -27
-13 -3 -23 -10 -24 -16 -2 -18 -21 -35 -33 -28 -6 3 -7 2 -3 -2 12 -13 34 -17
120 -22 44 -3 77 -9 77 -15 0 -6 7 -5 18 3 9 7 1 -4 -17 -24 -19 -20 -37 -37
-40 -37 -2 0 6 11 19 25 18 19 20 26 9 29 -25 8 -158 12 -146 4 7 -4 41 -8 76
-8 l65 0 -33 -34 c-18 -19 -31 -40 -28 -48 4 -9 6 -8 6 4 2 31 16 27 16 -5 0
-34 19 -44 85 -46 27 0 44 8 73 34 20 20 37 40 37 45 0 6 8 10 18 10 14 0 15
-2 2 -10 -13 -8 -13 -10 1 -10 21 0 52 35 46 52 -4 9 -6 7 -6 -4 -1 -9 -5 -19
-9 -22 -10 -6 -6 44 14 159 13 76 13 105 3 175 -21 146 -28 410 -11 450 9 21
10 17 7 -25 -4 -42 -3 -44 4 -15 4 19 11 46 15 59 6 18 5 22 -5 16 -8 -5 -3 3
10 18 13 14 24 39 26 56 1 17 8 38 16 47 22 27 15 93 -18 159 -29 60 -29 60
-11 95 10 19 18 52 18 72 0 21 9 60 20 89 46 117 46 282 0 324 -31 28 -24 57
21 100 50 48 83 116 75 153 -5 24 -5 25 5 8 19 -31 -7 -93 -62 -151 -53 -57
-59 -78 -30 -109 11 -12 24 -37 30 -56 l11 -35 -5 35 c-3 19 -14 44 -25 55
-30 32 -24 57 25 105 44 44 82 116 72 142 -2 7 2 21 10 30 20 22 10 49 -37
102 -29 34 -40 42 -49 33 -10 -9 -10 -6 -2 14 9 25 8 26 -22 25 -18 0 -32 4
-32 9 0 19 -16 35 -27 29 -6 -4 -24 -7 -40 -6 -28 1 -29 0 -12 -14 17 -12 17
-13 2 -8 -10 3 -18 1 -18 -5 0 -6 -8 -11 -17 -11 -15 0 -15 2 -4 9 10 6 2 8
-23 6 -35 -3 -64 -15 -37 -15 9 0 9 -4 -1 -14 -8 -8 -15 -10 -19 -4 -17 26
-136 -78 -125 -109 3 -8 7 -29 7 -46 l2 -32 6 35 c7 32 8 30 15 -28 6 -44 5
-67 -3 -75 -15 -15 -14 -42 3 -56 8 -7 18 -27 22 -44 3 -18 11 -39 18 -47 9
-13 9 -13 -5 -2 -10 7 -20 28 -23 46 -4 19 -13 39 -21 46 -18 15 -19 42 -4 57
6 6 9 23 6 39 l-4 29 -2 -32 c0 -17 -5 -35 -11 -38 -15 -9 -12 -41 4 -54 8 -7
18 -27 21 -44 9 -38 31 -66 64 -78 l24 -10 -25 -27 c-14 -15 -46 -65 -72 -112
-25 -47 -46 -81 -46 -76 0 16 82 160 109 191 l26 30 -28 -25 c-15 -13 -46 -57
-68 -97 -22 -40 -45 -73 -50 -73 -6 0 -7 -6 -4 -12 4 -7 -16 10 -44 39 -33 33
-49 57 -45 67 4 11 -5 22 -29 36 -27 16 -39 34 -57 83 -13 34 -25 68 -27 75
-3 6 2 12 12 12 10 0 14 5 9 13 -4 6 5 1 20 -13 43 -39 60 -20 64 69 2 41 -2
78 -8 85 -7 10 -4 18 12 32 12 10 18 14 15 8 -4 -7 3 -14 17 -18 27 -7 56 1
56 15 0 5 -9 4 -20 -3 -16 -10 -22 -10 -32 0 -11 11 -10 12 5 6 48 -18 63 53
20 91 -30 26 -49 33 -37 13 4 -8 3 -10 -2 -5 -5 5 -9 12 -9 15 0 13 -16 32
-26 32 -6 0 -7 -6 -3 -12 4 -7 3 -9 -1 -5 -12 10 -18 57 -8 57 13 0 12 54 0
70 -10 13 -10 13 6 1 9 -7 18 -23 18 -35 1 -18 2 -18 6 -3 3 11 -5 29 -19 44
-22 24 -27 25 -91 19 -71 -6 -112 -21 -102 -35 2 -5 -2 -15 -11 -22 -12 -10
-15 -10 -12 1 2 7 -3 15 -11 18 -10 3 -11 0 -5 -9 7 -12 5 -12 -9 0 -9 7 -17
24 -17 37 0 12 -10 30 -22 38 -12 9 -18 16 -12 16 17 0 42 -32 47 -60 l4 -25
2 26 c1 25 -34 69 -56 69 -5 0 -18 -10 -29 -22z" />
    </g>
</svg>
