<svg xmlns="http://www.w3.org/2000/svg" width="308.000000pt" height="360.000000pt"
    viewBox="0 0 308.000000 360.000000" preserveAspectRatio="xMidYMid meet">
    <metadata>
        Created by potrace 1.16, written by Peter Selinger 2001-2019
    </metadata>
    <g transform="translate(0.000000,360.000000) scale(0.100000,-0.100000)" fill="#000000"
        stroke="none">
        <path d="M713 3581 c-23 -11 -61 -37 -85 -59 -36 -33 -52 -40 -96 -44 -91 -9
-131 -53 -157 -177 -12 -56 -13 -77 -4 -88 25 -29 15 -142 -22 -258 -35 -107
-35 -113 -29 -219 5 -79 11 -112 22 -120 13 -10 6 -29 -50 -131 -103 -190
-111 -221 -128 -477 -12 -190 -16 -223 -34 -248 -30 -42 -25 -71 18 -116 21
-21 46 -44 56 -49 17 -10 13 -27 -57 -240 -41 -127 -80 -254 -88 -283 -8 -34
-21 -58 -36 -67 -31 -21 -31 -68 1 -100 16 -16 40 -25 80 -30 31 -4 59 -11 62
-16 3 -5 13 -9 22 -9 9 0 25 -14 34 -30 14 -24 24 -30 52 -30 19 0 47 -5 62
-11 44 -16 74 5 74 52 0 28 4 37 14 33 11 -4 11 -14 0 -62 -20 -82 -18 -166 6
-351 18 -129 20 -165 10 -171 -8 -5 -10 -19 -6 -42 6 -32 4 -36 -29 -54 -33
-17 -46 -34 -27 -34 5 0 4 -22 -2 -49 -8 -41 -7 -53 7 -75 15 -22 25 -26 65
-26 66 0 121 18 152 49 34 33 47 122 28 193 -9 38 -9 74 1 170 6 68 16 177 21
243 5 66 15 132 21 147 10 25 17 28 56 28 24 0 54 5 66 12 28 15 100 29 157
31 l45 2 -3 -110 c-2 -60 3 -173 12 -250 16 -136 17 -200 4 -220 -3 -5 -9 -40
-12 -77 -7 -58 -5 -68 11 -76 34 -18 262 -92 302 -98 37 -6 44 -3 71 26 34 36
40 91 15 124 -11 15 -12 22 -3 27 19 12 -9 37 -48 45 -39 7 -56 24 -25 24 12
0 21 6 21 13 1 19 -54 126 -65 127 -5 0 -21 -16 -34 -36 -20 -28 -26 -32 -33
-20 -8 14 -3 66 23 261 5 44 9 117 7 164 l-3 84 69 23 c39 13 86 24 106 24 44
0 101 16 110 31 4 6 11 -6 15 -28 11 -60 34 -101 71 -124 32 -19 34 -24 34
-76 0 -47 4 -59 29 -84 16 -16 43 -32 59 -35 24 -5 28 -10 24 -30 -4 -24 31
-66 88 -104 29 -20 39 -104 14 -131 -12 -14 -13 -22 -4 -39 10 -19 7 -26 -28
-60 -22 -21 -63 -48 -90 -60 -55 -25 -81 -62 -61 -86 16 -19 83 -18 296 6 226
26 323 47 323 70 0 17 -14 59 -40 125 -7 17 -14 75 -16 130 -6 129 -10 145
-34 145 -13 0 -22 9 -26 28 -3 15 -12 50 -19 77 -7 28 -16 70 -20 95 -9 65
-23 96 -51 110 -16 9 -24 22 -24 40 0 14 -6 32 -12 39 -11 11 -8 12 13 7 23
-5 34 2 82 53 62 67 168 269 189 359 9 39 18 56 33 62 20 7 23 19 28 101 4 51
7 139 7 196 0 98 1 103 21 103 12 0 23 8 26 20 3 13 14 20 29 20 30 0 41 20
20 36 -16 12 -16 13 0 22 25 14 10 30 -44 46 -44 14 -45 15 -14 15 44 1 42 26
-3 41 l-35 12 0 71 c-1 40 -7 108 -15 152 -8 44 -15 82 -15 85 0 2 19 -14 43
-36 23 -23 58 -50 77 -62 22 -13 40 -34 48 -56 21 -57 186 -202 217 -190 7 3
29 -6 50 -20 21 -14 41 -26 44 -26 4 0 24 -29 44 -66 39 -67 55 -81 83 -70 14
5 14 9 2 29 -7 12 -19 35 -26 51 l-13 29 36 -32 c56 -49 89 -35 46 21 l-20 24
30 -4 c38 -6 37 10 -2 59 l-31 39 28 -10 c68 -26 74 22 7 53 -78 36 -125 68
-119 82 3 8 -37 54 -92 108 -53 52 -134 132 -178 179 -53 55 -99 93 -130 108
-134 61 -170 82 -185 108 -9 17 -45 43 -90 67 -41 21 -105 58 -144 82 -38 23
-84 46 -101 49 -27 5 -33 11 -38 44 -3 20 -13 43 -21 50 -13 11 -11 17 19 46
52 50 83 126 95 227 12 104 0 148 -54 195 -39 35 -164 88 -240 104 -95 19
-250 -26 -304 -88 -29 -33 -31 -40 -31 -116 0 -79 -1 -83 -32 -115 -29 -30
-31 -36 -22 -61 7 -19 7 -35 1 -50 -8 -17 -6 -32 6 -57 10 -21 14 -46 10 -68
-4 -30 -1 -38 20 -52 15 -9 46 -19 69 -22 48 -6 108 -38 108 -58 0 -7 -7 -18
-15 -25 -9 -8 -15 -29 -15 -56 0 -23 -5 -55 -10 -70 -8 -20 -7 -29 4 -38 12
-9 35 -118 49 -236 3 -19 14 -78 25 -130 11 -52 23 -121 27 -153 3 -31 24
-114 46 -183 21 -69 39 -142 39 -162 0 -21 9 -64 21 -98 l22 -61 -40 -59 c-49
-71 -74 -120 -67 -127 3 -2 -12 -31 -32 -63 -58 -90 -126 -241 -134 -298 -4
-28 -8 -43 -9 -33 -2 26 -94 357 -156 557 -29 96 -65 216 -79 267 -14 50 -44
132 -66 182 -23 50 -38 96 -35 101 11 18 -6 50 -26 50 -20 0 -20 4 -14 173 4
94 13 192 20 217 23 77 25 98 15 124 -10 29 -82 69 -154 87 -25 6 -46 16 -46
23 0 6 -3 21 -6 34 -6 21 -4 22 55 22 75 0 101 12 101 45 0 14 5 34 10 45 6
11 15 29 20 40 6 11 10 25 10 30 0 6 12 21 26 33 l26 23 -26 31 c-25 30 -27
36 -20 105 5 65 3 81 -21 139 -54 136 -133 190 -285 196 -69 3 -93 0 -127 -16z
m-150 -177 c3 -4 -3 -24 -13 -45 -13 -25 -20 -58 -20 -99 0 -72 35 -149 106
-236 24 -30 44 -63 44 -74 0 -22 -49 -62 -103 -85 -20 -8 -38 -15 -41 -15 -6
0 -1 39 7 60 3 8 7 24 9 35 2 11 9 21 16 21 6 1 14 2 17 3 3 0 -1 15 -10 31
-11 22 -12 30 -3 30 9 0 9 3 0 12 -8 8 -8 15 -1 24 7 8 6 16 -4 25 -7 8 -23
34 -36 59 -28 53 -41 202 -22 239 11 20 40 28 54 15z m-124 -1174 c1 -36 7
-77 15 -92 13 -25 12 -29 -26 -79 -48 -65 -72 -111 -109 -209 l-28 -75 -1 77
c0 42 9 123 19 180 11 57 23 129 27 161 5 43 16 73 47 120 l41 62 7 -40 c4
-22 8 -69 8 -105z" />
    </g>
</svg>
