<svg xmlns="http://www.w3.org/2000/svg" width="292.000000pt" height="468.000000pt"
    viewBox="0 0 292.000000 468.000000" preserveAspectRatio="xMidYMid meet">
    <metadata>
        Created by potrace 1.16, written by Peter Selinger 2001-2019
    </metadata>
    <g transform="translate(0.000000,468.000000) scale(0.100000,-0.100000)" fill="#000000"
        stroke="none">
        <path d="M1839 4652 c-43 -28 -103 -88 -133 -134 -9 -13 -31 -30 -51 -37 -32
-11 -38 -10 -61 8 -35 27 -95 27 -151 0 -93 -45 -147 -172 -147 -349 -1 -113
25 -230 50 -230 10 0 11 6 4 26 -16 41 -11 53 6 14 21 -48 94 -160 105 -160
14 0 10 16 -11 43 -29 37 -80 136 -80 156 0 9 11 -7 24 -35 24 -51 46 -77 46
-53 0 6 11 0 25 -15 27 -29 40 -34 31 -11 -3 8 -1 15 4 15 6 0 10 12 10 26 0
16 4 23 11 18 8 -4 9 1 4 17 -17 60 -17 59 1 52 13 -5 16 -3 11 10 -3 9 -2 17
3 17 6 0 6 10 0 26 -13 34 -17 148 -7 196 5 24 18 44 36 57 24 17 33 19 64 9
21 -6 37 -15 37 -19 0 -4 -9 -28 -20 -54 -11 -26 -20 -67 -20 -92 0 -43 4 -49
57 -98 56 -52 56 -52 50 -99 -11 -76 -30 -102 -99 -134 -35 -16 -76 -33 -93
-37 -46 -10 -128 -101 -154 -169 -23 -63 -27 -135 -9 -169 6 -12 24 -38 40
-58 22 -27 33 -57 44 -120 20 -112 14 -167 -35 -288 -31 -77 -43 -124 -51
-199 -34 -311 -37 -324 -93 -359 -74 -45 -127 -94 -147 -133 -11 -21 -35 -48
-55 -60 -26 -16 -38 -33 -49 -69 -8 -26 -26 -71 -40 -99 -50 -99 -58 -164 -53
-412 4 -182 9 -242 26 -315 12 -49 24 -126 27 -170 3 -44 14 -125 24 -180 10
-55 24 -161 30 -236 12 -159 3 -223 -36 -260 l-26 -24 -291 -2 c-217 -1 -310
-6 -363 -17 -132 -28 -205 -67 -264 -141 -38 -47 -42 -117 -9 -158 35 -46 82
-53 220 -32 182 27 209 21 392 -78 l69 -37 221 0 c122 0 463 5 757 11 l535 11
40 25 c67 40 154 118 186 166 42 64 114 263 141 393 19 89 23 134 20 244 -2
128 -4 139 -43 250 -22 63 -56 169 -75 235 -19 66 -38 132 -43 147 -11 31 -18
28 149 68 47 11 118 36 158 56 62 32 72 40 72 63 0 34 -33 103 -105 221 -68
111 -88 138 -214 283 -51 60 -91 109 -90 111 2 1 16 7 32 14 40 17 37 54 -9
82 -19 12 -42 33 -51 47 -16 25 -16 26 3 248 5 56 2 87 -16 150 -12 44 -26
116 -30 161 -5 55 -16 97 -34 131 -16 33 -27 75 -31 119 -10 109 -35 214 -66
276 -32 63 -116 153 -173 183 -52 28 -47 45 14 45 62 0 114 25 162 78 41 45
54 80 63 172 4 45 19 93 48 155 67 147 63 238 -19 357 -37 53 -86 83 -217 133
-148 57 -218 61 -288 17z m-127 -1996 c-8 -29 -10 -82 -5 -153 4 -83 2 -123
-11 -171 -19 -76 -19 -75 -3 -69 10 4 13 -23 15 -119 l1 -125 -34 -38 c-74
-82 -100 -198 -89 -394 l7 -118 46 6 c31 4 58 1 83 -9 26 -11 54 -14 102 -9
l66 6 -15 -36 c-10 -24 -15 -69 -15 -130 l0 -94 -47 -55 c-57 -65 -141 -185
-199 -283 -55 -92 -86 -119 -159 -140 -33 -9 -77 -28 -97 -42 -46 -31 -98
-107 -98 -142 0 -14 16 -71 34 -126 31 -90 40 -105 89 -151 122 -114 236 -135
272 -51 l14 32 1 -29 c0 -19 12 -41 39 -67 44 -45 70 -48 157 -23 49 14 61 14
130 0 97 -20 226 -21 263 -2 28 15 111 116 111 135 0 18 -33 28 -110 35 -85 7
-141 37 -209 111 -68 73 -67 137 4 320 24 62 51 150 60 196 31 151 47 174 170
249 124 75 151 111 162 211 l6 62 32 -114 c17 -63 41 -136 54 -164 88 -196 81
-496 -20 -763 -21 -58 -39 -110 -39 -116 0 -37 -173 -196 -233 -215 -18 -5
-205 -12 -417 -16 -212 -4 -452 -11 -535 -16 -451 -29 -483 -26 -667 68 -102
51 -120 57 -191 61 -53 3 -107 -1 -163 -13 -48 -10 -98 -15 -118 -11 -44 8
-86 42 -86 68 0 47 66 115 157 161 70 36 196 50 483 51 243 1 279 3 307 19 73
39 88 104 73 302 -6 77 -18 178 -26 225 -7 47 -18 129 -24 182 -5 54 -21 160
-35 235 -34 184 -44 417 -21 523 9 41 28 100 44 130 27 53 29 55 64 52 20 -2
50 4 67 13 26 13 31 13 31 1 0 -25 32 -28 62 -6 15 11 38 25 50 30 13 6 57 29
98 53 68 39 78 48 117 117 23 41 42 81 43 88 0 7 -11 18 -25 24 -14 6 -25 16
-25 21 0 5 17 44 38 86 21 42 51 118 67 169 l29 93 40 -40 40 -41 -12 -44z" />
    </g>
</svg>
