<svg xmlns="http://www.w3.org/2000/svg" width="250.000000pt" height="648.000000pt"
    viewBox="0 0 250.000000 648.000000" preserveAspectRatio="xMidYMid meet">
    <metadata>
        Created by potrace 1.16, written by Peter Selinger 2001-2019
    </metadata>
    <g transform="translate(0.000000,648.000000) scale(0.100000,-0.100000)" fill="#000000"
        stroke="none">
        <path d="M1313 6403 c-9 -7 -29 -13 -44 -13 -19 0 -30 -6 -34 -20 -5 -15 -12
-19 -25 -15 -14 5 -20 -2 -27 -32 -6 -28 -14 -39 -31 -41 -25 -4 -46 -31 -97
-129 -35 -67 -37 -76 -38 -170 -1 -125 15 -190 59 -242 33 -38 35 -44 29 -86
l-7 -45 -55 0 c-30 0 -67 -7 -82 -15 -31 -16 -91 -98 -91 -125 0 -9 -10 -22
-22 -28 -41 -20 -207 -82 -221 -82 -8 0 -30 -11 -50 -24 -19 -13 -64 -38 -98
-55 -77 -36 -149 -100 -149 -130 0 -12 -9 -39 -19 -60 -34 -66 -122 -343 -130
-411 -5 -36 -18 -90 -29 -121 -12 -30 -26 -91 -32 -135 -18 -138 -29 -186 -45
-210 -17 -26 -21 -149 -6 -173 6 -9 5 -24 0 -39 -5 -14 -7 -45 -3 -69 5 -34
11 -44 29 -49 20 -5 24 -15 34 -97 20 -156 32 -219 56 -297 13 -41 33 -131 46
-200 12 -69 30 -143 41 -164 16 -31 19 -50 13 -91 -6 -55 11 -147 40 -201 8
-16 15 -35 15 -42 0 -7 25 -37 55 -67 30 -30 57 -66 61 -80 3 -13 2 -106 -3
-206 -7 -129 -6 -199 2 -243 10 -56 9 -63 -10 -89 -17 -24 -20 -42 -18 -110 2
-75 0 -84 -28 -121 -24 -33 -29 -50 -29 -96 0 -55 -17 -95 -47 -113 -9 -6 -12
-19 -7 -42 3 -20 1 -35 -5 -40 -7 -4 -9 -20 -5 -40 3 -19 1 -35 -5 -39 -6 -4
-8 -26 -4 -56 7 -59 -12 -250 -34 -340 -12 -51 -14 -94 -9 -200 l6 -134 -27
-22 c-26 -21 -27 -22 -15 -73 7 -29 12 -66 12 -82 0 -39 -34 -144 -77 -239
-41 -91 -55 -153 -43 -204 11 -49 41 -80 109 -113 46 -21 71 -26 140 -27 l85
-1 30 44 c21 32 29 55 28 80 -1 20 3 54 8 76 24 105 44 180 50 185 9 7 50 98
50 110 0 6 9 28 20 50 11 22 20 51 20 65 0 15 9 47 19 73 28 67 42 145 52 301
30 428 60 611 108 653 17 16 33 47 45 89 10 35 27 82 39 103 11 22 24 56 28
75 30 131 84 281 128 351 l22 35 -3 -110 c-2 -90 1 -116 16 -144 10 -20 16
-44 13 -60 -3 -14 1 -66 10 -116 18 -105 18 -96 4 -160 -10 -46 -27 -192 -51
-430 -5 -49 -18 -139 -29 -200 -32 -172 -28 -240 15 -338 l36 -82 -7 -128 -6
-128 42 -38 c23 -22 72 -51 110 -66 82 -32 111 -54 132 -98 9 -18 29 -39 44
-47 15 -8 41 -23 56 -33 69 -46 247 -62 304 -27 27 16 33 26 33 52 0 39 -84
206 -108 215 -10 4 -31 18 -49 32 -24 19 -31 31 -27 47 4 15 -7 34 -41 70 -26
27 -63 73 -82 101 -31 46 -35 58 -29 92 4 24 0 55 -9 81 -14 40 -13 44 10 88
17 32 25 63 25 98 0 27 9 86 19 130 11 43 25 111 32 149 6 39 22 97 35 130 12
33 30 98 38 145 14 77 14 89 0 127 -16 41 -16 42 10 76 16 20 26 47 26 66 0
42 29 169 46 203 8 15 14 42 14 60 0 18 12 65 26 103 14 39 31 93 36 120 6 28
16 55 22 60 25 22 45 65 70 146 39 130 47 174 56 319 7 116 12 142 34 182 41
77 49 118 30 169 -8 24 -19 80 -23 124 -5 44 -21 113 -36 154 -31 86 -31 153
2 239 l20 53 48 -98 c44 -90 63 -126 162 -297 45 -79 49 -100 27 -148 -13 -29
-15 -43 -7 -45 13 -5 5 -42 -21 -91 -11 -22 -16 -58 -16 -125 0 -101 -4 -109
-53 -121 -27 -6 -28 -9 -22 -49 4 -23 13 -49 21 -58 8 -8 14 -24 14 -34 0 -27
81 -15 168 25 66 30 73 36 89 79 10 25 25 61 35 80 10 20 18 56 18 81 1 74 16
130 39 146 18 13 21 25 21 95 0 78 0 79 -25 79 -16 0 -28 7 -31 18 -3 9 -16
42 -29 72 -36 81 -114 412 -135 569 -7 47 -18 101 -26 120 -7 20 -18 65 -23
100 -6 36 -15 68 -21 71 -12 7 -27 81 -39 195 -4 39 -13 83 -19 98 -7 16 -12
78 -12 145 0 181 -21 268 -119 497 -51 119 -52 120 -104 147 -44 23 -193 83
-250 102 -31 10 -30 35 2 87 17 28 31 52 31 55 0 2 11 22 25 44 37 59 67 145
64 185 -2 21 3 42 12 53 25 29 32 68 33 192 1 63 5 121 9 127 11 17 -45 130
-89 181 -39 46 -107 74 -185 76 -27 0 -49 4 -49 7 0 27 -152 37 -187 12z" />
    </g>
</svg>
