<svg xmlns="http://www.w3.org/2000/svg" width="230.000000pt" height="340.000000pt"
    viewBox="0 0 230.000000 340.000000" preserveAspectRatio="xMidYMid meet">
    <metadata>
        Created by potrace 1.16, written by Peter Selinger 2001-2019
    </metadata>
    <g transform="translate(0.000000,340.000000) scale(0.100000,-0.100000)" fill="#000000"
        stroke="none">
        <path d="M952 3364 c-49 -42 -96 -116 -89 -141 4 -16 5 -15 6 2 1 11 5 25 9
31 4 7 7 -25 8 -70 0 -67 -1 -74 -8 -42 -12 56 -20 59 -12 6 4 -28 17 -57 33
-75 39 -43 75 -128 68 -157 -7 -27 -44 -48 -83 -48 -14 0 -23 -4 -20 -8 2 -4
-11 -6 -30 -4 -19 2 -44 2 -56 -2 -33 -8 -71 -69 -63 -98 5 -18 4 -20 -4 -8
-8 11 -11 2 -11 -38 0 -29 -5 -85 -11 -123 -6 -39 -9 -73 -6 -75 3 -3 9 23 15
58 5 35 10 50 11 35 2 -47 -30 -168 -46 -174 -12 -5 -12 -7 -1 -14 11 -7 11
-9 -1 -9 -7 0 -11 -6 -7 -15 3 -8 1 -15 -4 -15 -5 0 -11 -9 -15 -19 -3 -11
-17 -36 -31 -56 -13 -20 -22 -40 -19 -45 3 -5 0 -12 -6 -16 -8 -5 -9 -3 -4 6
6 9 4 11 -4 6 -7 -5 -10 -15 -6 -24 3 -9 3 -13 -1 -9 -10 10 -56 -61 -48 -75
4 -7 3 -8 -4 -4 -6 4 -16 -4 -23 -16 -12 -22 -11 -22 6 -8 17 14 17 14 5 -7
-8 -12 -16 -21 -19 -20 -4 1 -28 -22 -54 -50 -31 -33 -46 -57 -41 -65 4 -7 3
-10 -1 -5 -5 4 -17 -1 -28 -10 -13 -12 -43 -20 -96 -24 -42 -3 -105 -13 -141
-22 -36 -9 -77 -19 -92 -22 -29 -5 -37 -31 -22 -69 7 -19 86 -22 128 -6 25 9
26 8 20 -15 -6 -26 14 -55 38 -55 8 0 29 11 48 25 20 15 47 25 67 25 18 0 33
5 33 11 0 5 4 7 10 4 23 -14 132 67 277 208 51 50 89 95 86 100 -3 6 -2 7 4 4
6 -4 20 5 33 18 13 13 27 22 31 19 5 -3 9 3 9 12 0 10 2 15 5 12 10 -9 -30
-158 -42 -158 -7 0 -13 -5 -13 -11 0 -5 5 -7 10 -4 6 3 10 1 10 -4 0 -6 -5
-11 -11 -11 -6 0 -9 -7 -5 -15 3 -8 0 -15 -5 -15 -6 0 -9 -9 -6 -20 3 -12 1
-18 -5 -14 -7 5 -9 -2 -6 -19 3 -15 1 -24 -3 -21 -10 6 -12 -59 -3 -105 4 -17
10 -28 14 -26 5 3 6 -5 2 -17 -4 -15 -2 -19 7 -13 10 5 11 2 7 -13 -9 -26 32
-124 47 -115 5 3 7 1 3 -5 -8 -13 24 -83 36 -76 4 3 6 -1 3 -8 -6 -14 79 -171
95 -176 6 -2 8 -7 5 -12 -7 -12 16 -61 26 -55 4 3 11 0 15 -6 5 -8 3 -9 -6 -4
-10 6 -11 4 -5 -11 5 -10 10 -39 13 -63 3 -28 7 -39 12 -30 5 7 6 -16 3 -51
-4 -43 -3 -61 5 -57 6 5 8 0 5 -11 -2 -11 3 -26 12 -36 9 -9 13 -16 8 -16 -4
0 -3 -4 3 -8 12 -8 44 -66 44 -79 -1 -4 -10 9 -21 30 -34 65 -31 40 4 -31 30
-58 35 -80 40 -167 3 -61 2 -90 -3 -75 -6 17 -8 -3 -7 -62 1 -47 -2 -84 -7
-81 -4 3 -7 -13 -4 -35 2 -22 2 -39 -1 -37 -4 4 -51 -90 -51 -102 0 -2 6 -1
13 3 9 6 9 5 0 -8 -7 -8 -10 -18 -6 -21 3 -4 1 -7 -6 -7 -8 0 -11 -6 -7 -16 3
-8 2 -12 -4 -9 -6 3 -10 0 -10 -7 0 -8 -16 -47 -35 -87 -20 -41 -33 -76 -31
-79 3 -2 -1 -11 -9 -19 -22 -21 -29 -61 -15 -78 10 -12 39 -15 136 -15 l123 0
21 30 c12 16 23 44 25 62 27 221 36 322 28 314 -4 -4 -10 -41 -14 -84 l-6 -77
-1 61 c-1 34 3 74 8 91 12 33 37 39 46 11 3 -10 8 -16 12 -14 4 2 7 -27 7 -64
0 -37 -3 -66 -7 -63 -5 2 -8 -12 -8 -31 0 -20 4 -36 10 -36 5 0 7 -7 4 -15 -4
-8 -2 -15 4 -15 11 0 38 -59 34 -76 -1 -5 13 -25 31 -42 55 -53 148 -56 167
-7 5 14 13 25 17 25 16 0 8 135 -11 187 -11 29 -22 50 -26 48 -3 -2 -3 19 1
48 13 89 11 95 -37 147 -39 42 -46 56 -51 104 -3 32 -10 53 -15 49 -6 -3 -8 3
-4 15 8 24 -3 74 -14 67 -4 -2 -7 9 -8 26 0 16 3 27 7 24 11 -6 22 50 15 72
-5 15 -4 16 5 3 8 -11 11 10 10 80 0 52 -3 87 -7 78 -4 -10 -7 34 -7 96 0 63
3 112 8 109 4 -2 7 2 7 9 0 7 3 24 5 38 5 22 4 22 -4 5 -16 -34 -12 -4 12 83
13 45 27 79 31 75 5 -4 6 2 3 15 -3 12 -1 22 5 22 6 0 8 7 4 15 -3 8 -2 15 3
15 26 0 46 283 29 405 -4 31 -4 41 2 25 12 -38 12 -8 -2 49 -6 28 -15 48 -19
46 -4 -3 -5 4 -2 15 3 11 0 20 -6 20 -5 0 -8 7 -5 15 4 8 1 15 -6 15 -6 0 -8
4 -5 10 8 13 -34 92 -45 85 -5 -3 -7 0 -5 8 3 7 -3 22 -15 32 -11 10 -20 24
-20 32 0 8 -4 11 -10 8 -6 -3 -10 4 -10 17 0 16 3 19 8 10 5 -8 9 5 9 32 0 25
-4 43 -9 40 -4 -3 -8 4 -8 16 0 13 4 19 11 14 8 -5 10 1 7 20 -3 14 -1 26 5
26 5 0 7 9 4 20 -3 11 -2 20 1 21 4 0 15 2 25 4 9 2 15 -1 12 -5 -8 -13 65
-111 77 -103 7 3 8 1 4 -5 -7 -11 108 -155 116 -146 3 2 5 -2 5 -9 0 -38 204
-264 226 -250 5 3 7 1 4 -5 -9 -13 46 -60 76 -66 12 -3 39 -8 61 -11 21 -4 56
-18 77 -32 l39 -25 24 23 c22 21 23 25 10 40 -14 16 -12 17 24 16 22 -1 38 -5
35 -9 -2 -5 5 -8 17 -8 12 0 19 4 15 9 -3 6 9 7 30 4 35 -6 35 -5 35 30 0 30
-4 37 -31 46 -18 6 -42 11 -54 11 -13 0 -40 7 -61 16 -20 9 -50 14 -66 12 -15
-3 -28 -1 -28 4 0 4 -20 8 -44 8 -38 0 -46 4 -67 34 -13 19 -27 32 -31 30 -4
-3 -5 1 -3 8 3 8 -2 22 -10 33 -15 19 -16 19 -5 -5 10 -23 10 -24 -4 -7 -8 11
-12 26 -9 35 5 11 3 13 -7 7 -8 -5 -11 -4 -6 3 7 11 -33 102 -45 102 -4 0 -5
10 -2 23 3 16 2 18 -5 9 -7 -11 -10 -10 -16 3 -9 24 -8 27 7 19 6 -4 -6 13
-29 37 -66 71 -110 130 -138 187 -16 32 -31 50 -38 46 -7 -5 -8 -3 -3 5 8 14
-23 91 -37 91 -5 0 -6 5 -3 11 4 6 -2 19 -14 30 -12 11 -21 25 -21 31 0 7 7 3
15 -8 13 -17 14 -16 4 14 -6 17 -15 35 -20 38 -5 3 -6 -3 -3 -13 5 -15 4 -15
-4 -3 -6 8 -8 18 -5 23 6 10 -24 44 -50 59 -11 5 -60 14 -109 18 -111 11 -127
22 -110 77 6 21 29 55 52 76 35 34 55 68 31 52 -5 -3 -5 11 1 32 9 34 7 76 -7
143 -5 22 -4 22 4 5 5 -11 10 -14 10 -7 1 16 -25 67 -52 105 l-21 27 -136 0
-136 0 -42 -36z" />
    </g>
</svg>
