<svg xmlns="http://www.w3.org/2000/svg" width="280.000000pt" height="640.000000pt"
    viewBox="0 0 280.000000 640.000000" preserveAspectRatio="xMidYMid meet">
    <metadata>
        Created by potrace 1.16, written by Peter Selinger 2001-2019
    </metadata>
    <g transform="translate(0.000000,640.000000) scale(0.100000,-0.100000)" fill="#000000"
        stroke="none">
        <path d="M2122 6387 c-12 -7 -20 -15 -18 -18 3 -3 -11 -3 -30 -1 -27 3 -33 7
-23 14 11 7 9 8 -4 4 -10 -3 -28 -6 -40 -7 -21 0 -21 -1 -2 -9 19 -8 18 -9 -4
-9 -14 -1 -32 -8 -41 -16 -9 -8 -32 -17 -51 -19 -19 -2 -37 -4 -41 -5 -5 0 -8
-7 -8 -14 0 -7 -9 -20 -20 -30 -12 -10 -17 -23 -13 -33 3 -9 1 -19 -5 -23 -13
-8 3 -104 18 -109 5 -2 3 -11 -6 -19 -8 -9 -13 -22 -10 -29 7 -18 -4 -45 -15
-38 -11 6 -10 10 -14 -91 -4 -100 -3 -97 -14 -91 -11 7 -23 -22 -14 -36 3 -6
2 -8 -4 -5 -6 4 -9 -12 -8 -40 2 -43 15 -62 42 -63 6 0 9 -8 6 -19 -3 -12 3
-29 15 -41 16 -17 19 -28 12 -46 -6 -16 -6 -24 1 -24 6 0 7 -4 4 -10 -3 -5 -2
-10 2 -10 5 0 8 -18 7 -40 -1 -22 2 -37 7 -34 5 3 9 -2 9 -10 0 -19 57 -59 71
-50 7 4 9 3 6 -3 -3 -5 9 -17 28 -26 31 -15 33 -19 37 -74 4 -80 -1 -125 -14
-117 -7 5 -9 -2 -4 -20 5 -20 4 -26 -5 -20 -9 5 -10 -1 -5 -20 4 -18 3 -25 -4
-21 -5 3 -10 -1 -10 -10 0 -9 4 -14 9 -11 4 3 6 -6 3 -19 -2 -14 -8 -25 -13
-25 -5 0 -6 -7 -3 -15 4 -8 1 -15 -6 -15 -7 0 -10 -7 -6 -15 3 -8 1 -15 -5
-15 -5 0 -7 -12 -3 -27 4 -22 3 -25 -5 -13 -8 11 -9 7 -4 -19 5 -26 3 -32 -7
-26 -9 6 -10 2 -5 -15 5 -15 4 -20 -4 -16 -6 4 -11 3 -11 -3 0 -5 -3 -17 -7
-27 -4 -11 -3 -15 4 -11 8 5 8 -3 0 -28 -6 -19 -15 -35 -20 -35 -5 0 -7 -7 -3
-15 3 -8 2 -15 -3 -15 -5 0 -8 -18 -7 -40 0 -25 -5 -44 -13 -49 -7 -5 -10 -14
-7 -20 4 -6 2 -11 -4 -11 -7 0 -10 -6 -7 -13 2 -6 -1 -18 -9 -24 -10 -10 -16
-9 -27 7 -8 11 -17 17 -21 13 -4 -4 -4 0 -1 9 4 11 0 20 -13 27 -11 6 -22 18
-26 26 -3 9 -2 13 4 10 6 -4 5 5 -1 19 -7 14 -15 23 -19 21 -5 -3 -11 2 -14
11 -4 10 -2 13 6 8 16 -10 -27 49 -48 67 -15 12 -17 12 -9 0 5 -10 4 -12 -3
-7 -7 4 -12 13 -12 20 0 7 -20 36 -45 65 -25 29 -45 49 -45 45 0 -4 -6 1 -14
12 -8 10 -18 16 -22 11 -4 -4 -1 -7 7 -7 8 -1 -1 -7 -18 -15 -28 -12 -33 -19
-33 -50 0 -19 4 -35 10 -35 5 0 7 -7 4 -15 -5 -11 -11 -12 -25 -4 -11 5 -25 7
-32 3 -6 -4 -9 -4 -5 1 8 8 -19 34 -36 35 -6 0 -1 -7 10 -15 18 -14 17 -15 -8
-4 -15 7 -25 15 -23 20 3 4 -4 5 -15 2 -12 -3 -20 0 -20 7 0 8 -9 10 -26 6
-17 -5 -23 -3 -19 4 8 13 -22 13 -38 0 -46 -39 -61 -50 -69 -50 -4 0 -8 -7 -8
-15 0 -8 -4 -15 -8 -15 -5 0 -8 -10 -8 -21 1 -27 55 -91 69 -82 6 3 7 1 4 -4
-4 -6 5 -19 19 -28 18 -12 24 -13 19 -4 -4 8 3 3 14 -11 11 -14 23 -33 27 -42
3 -10 10 -18 15 -18 6 0 7 -4 4 -10 -3 -5 -1 -10 5 -10 6 0 8 -5 5 -11 -8 -12
93 -110 109 -107 15 3 76 -34 71 -43 -5 -8 69 -41 98 -44 9 -1 24 -10 33 -21
8 -10 12 -12 8 -4 -4 8 7 0 25 -18 18 -17 37 -30 42 -26 5 3 8 0 7 -8 -2 -7 3
-12 11 -10 8 2 11 -3 8 -13 -4 -8 -2 -15 4 -15 6 0 8 -4 5 -9 -7 -11 18 -33
27 -24 4 3 7 -1 7 -11 0 -10 -5 -14 -11 -10 -9 5 -10 -4 -5 -31 5 -27 4 -35
-5 -30 -8 6 -10 -2 -7 -29 2 -20 0 -36 -4 -36 -5 0 -6 -34 -2 -76 5 -54 4 -78
-5 -83 -15 -10 -4 -110 16 -136 12 -17 15 -18 24 -5 8 11 9 9 5 -12 -4 -17 -1
-32 10 -42 8 -9 13 -20 10 -25 -4 -5 -2 -11 3 -13 4 -1 10 -27 13 -56 3 -31 2
-48 -3 -40 -7 10 -9 9 -9 -4 0 -10 4 -18 10 -18 5 0 7 -7 4 -15 -4 -8 -1 -15
5 -15 6 0 11 -9 11 -21 0 -13 -4 -18 -12 -13 -8 5 -9 0 -6 -14 4 -14 2 -20 -5
-15 -6 4 -8 0 -4 -10 3 -10 2 -17 -4 -17 -6 0 -7 -4 -4 -10 3 -5 2 -10 -3 -10
-6 0 -15 -14 -21 -31 -13 -39 -14 -49 -1 -29 8 13 10 12 10 -2 0 -10 -4 -18
-9 -18 -5 0 -7 -10 -3 -22 3 -15 2 -19 -7 -14 -9 6 -10 0 -5 -20 5 -20 4 -25
-5 -19 -9 5 -12 0 -10 -16 2 -13 -1 -30 -6 -38 -5 -10 -4 -16 3 -19 8 -2 10
-13 6 -29 -5 -20 -4 -24 6 -18 10 6 12 4 6 -10 -4 -11 -2 -22 6 -26 7 -5 12
-32 12 -73 0 -36 3 -63 8 -60 4 3 5 -2 2 -10 -4 -9 -1 -16 6 -16 7 0 10 -7 6
-15 -3 -8 -1 -15 5 -15 7 0 8 -12 4 -32 -5 -25 -4 -29 4 -18 9 12 11 9 11 -15
0 -23 -3 -27 -10 -15 -8 13 -10 12 -10 -2 0 -10 4 -18 8 -18 5 0 7 -15 5 -32
-4 -26 -2 -30 7 -18 8 11 9 1 4 -40 -3 -35 -2 -50 4 -42 11 17 25 -87 16 -123
-4 -16 -2 -25 5 -25 7 0 9 -10 5 -26 -5 -21 -4 -25 6 -19 10 6 11 2 6 -18 -3
-14 -2 -27 3 -29 4 -2 11 -21 14 -43 5 -28 4 -34 -3 -20 -8 18 -9 17 -9 -7 -1
-16 3 -28 8 -28 4 0 6 -12 3 -26 -4 -20 -2 -25 8 -19 9 6 10 0 5 -25 -5 -25
-4 -31 5 -25 10 6 12 1 8 -19 -3 -14 -1 -26 5 -26 6 0 7 -21 3 -55 -4 -34 -2
-55 4 -55 5 0 7 -13 3 -32 -5 -24 -3 -29 7 -23 10 6 11 2 6 -18 -3 -14 -2 -27
2 -29 5 -2 12 -19 15 -38 5 -27 4 -31 -4 -20 -8 12 -10 10 -5 -10 3 -14 6 -33
6 -43 0 -10 5 -15 11 -12 7 5 8 -5 4 -32 -5 -30 -4 -35 5 -23 10 12 11 11 7
-7 -3 -13 -1 -26 4 -29 6 -3 7 -25 3 -51 -5 -33 -3 -44 5 -39 7 5 9 -3 4 -25
-4 -24 -3 -30 6 -25 9 6 11 -1 5 -29 -5 -30 -4 -36 6 -30 10 6 12 0 7 -31 -5
-29 -4 -35 4 -24 8 11 9 9 5 -13 -4 -15 -3 -27 1 -27 5 0 9 -64 10 -143 1 -93
-2 -133 -8 -117 -6 16 -7 -14 -5 -88 3 -65 1 -112 -5 -112 -5 0 -9 -47 -9
-106 0 -74 3 -103 11 -98 8 4 9 0 4 -15 -3 -11 -2 -21 3 -21 9 0 8 -22 -5 -60
-2 -8 -5 -17 -5 -20 0 -3 -9 -11 -20 -18 -10 -7 -16 -17 -13 -22 3 -5 0 -12
-6 -16 -8 -5 -9 -3 -4 7 4 8 -8 -3 -27 -24 -20 -20 -44 -37 -54 -38 -11 0 -40
-4 -66 -8 -26 -4 -45 -4 -42 1 3 4 -4 8 -16 8 -13 0 -19 -4 -14 -12 4 -7 3 -8
-5 -4 -18 12 -74 -11 -95 -39 -10 -13 -22 -22 -27 -19 -5 3 -6 -3 -2 -12 4
-12 3 -15 -5 -10 -16 10 -16 -41 1 -58 6 -8 19 -24 27 -36 16 -23 84 -60 110
-59 11 0 11 2 -2 7 -10 4 49 7 130 7 81 0 163 3 182 7 24 6 30 5 20 -2 -8 -5
-28 -10 -44 -10 -16 0 -27 -3 -23 -6 9 -10 108 7 101 17 -3 5 -1 9 5 9 20 0
18 -16 -5 -43 -13 -16 -24 -25 -24 -20 0 4 -7 -2 -15 -14 -10 -14 -21 -20 -32
-16 -11 4 -14 3 -9 -5 4 -7 2 -10 -6 -7 -7 3 -25 -6 -39 -19 -15 -14 -29 -23
-32 -20 -11 12 -82 -29 -123 -70 -49 -50 -55 -76 -21 -100 12 -9 15 -14 7 -10
-13 7 -13 5 -1 -9 7 -9 18 -17 23 -17 5 0 16 -7 25 -15 23 -23 460 -21 509 2
18 9 31 20 28 25 -3 4 3 5 12 1 13 -5 15 -3 9 7 -5 8 -4 11 2 7 16 -10 74 4
66 16 -4 7 13 8 51 3 39 -4 55 -3 51 4 -4 7 3 8 21 4 18 -5 25 -3 21 3 -4 6 0
14 9 17 10 4 13 2 9 -7 -4 -6 0 -5 7 3 8 8 20 21 28 29 8 8 10 11 3 7 -8 -4
-8 0 0 18 7 13 16 22 20 19 5 -3 6 21 2 57 -5 45 -4 61 4 56 8 -5 10 33 8 133
-1 78 -4 141 -7 141 -3 0 -5 103 -5 229 0 126 4 227 9 224 4 -3 7 28 5 68 -5
122 1 267 11 244 6 -13 9 15 9 80 0 68 -3 94 -9 80 -7 -13 -9 9 -8 70 1 50 -2
96 -6 104 -5 7 -5 46 -1 87 4 47 3 74 -3 74 -6 0 -8 17 -5 42 5 31 3 39 -7 33
-9 -6 -11 2 -5 35 5 30 4 41 -4 36 -8 -5 -11 36 -11 143 0 93 4 151 10 151 6
0 8 52 5 143 -3 99 -2 136 5 122 7 -14 9 10 6 83 -4 73 -2 101 6 96 8 -5 9 16
4 74 -8 90 0 175 16 166 7 -4 8 12 3 46 -5 36 -4 50 3 46 7 -4 11 39 11 136 0
98 -4 137 -11 127 -7 -10 -8 -2 -4 28 4 27 2 43 -6 45 -6 2 -11 25 -12 51 -1
26 -5 47 -9 47 -5 0 -6 4 -3 9 9 14 -5 42 -16 35 -6 -4 -8 1 -4 13 4 12 -1 27
-14 41 -11 11 -20 26 -20 31 0 6 -8 14 -17 20 -10 5 -17 12 -15 15 6 15 1 26
-10 20 -6 -4 -8 -3 -5 4 9 14 -3 43 -14 36 -9 -5 -14 12 -9 31 1 6 3 16 3 22
0 8 9 10 25 6 19 -4 23 -3 17 7 -5 8 -4 11 3 6 6 -3 22 4 36 17 21 20 25 30
20 56 -4 19 -2 31 4 31 7 0 9 14 6 38 -5 29 -3 34 6 22 9 -12 10 -5 6 33 -3
28 -2 47 4 47 6 0 9 33 8 83 -5 154 1 279 13 271 9 -5 10 15 5 72 -5 56 -4 75
3 64 9 -12 11 -9 11 15 0 17 2 48 5 70 4 32 3 35 -4 15 -8 -23 -9 -24 -10 -3
-1 12 3 24 8 27 5 4 9 113 9 252 0 200 -3 248 -15 259 -8 8 -11 15 -7 15 4 0
-1 7 -12 16 -10 8 -13 12 -5 9 9 -5 8 1 -4 19 -10 14 -22 26 -27 26 -5 0 -7 3
-5 8 3 4 -20 34 -51 68 -32 33 -50 51 -42 40 15 -21 15 -21 -7 -2 -12 10 -25
26 -28 36 -3 9 -20 27 -38 40 -27 20 -30 21 -18 4 7 -10 -1 -3 -18 16 -17 19
-36 35 -40 35 -5 0 -13 4 -18 9 -5 5 -2 6 7 2 12 -6 12 -5 -1 6 -9 7 -14 19
-11 27 3 8 0 11 -7 7 -7 -5 -11 2 -11 18 0 13 -3 32 -7 42 -4 12 -3 15 5 10
16 -10 15 -1 -3 34 -9 17 -11 30 -6 30 5 0 12 7 15 16 4 9 2 13 -5 8 -14 -8
10 38 24 48 9 5 13 24 16 66 1 7 6 10 13 6 8 -5 9 2 5 25 -4 20 -3 30 3 26 6
-3 10 -2 10 4 0 5 3 17 7 27 4 12 3 15 -5 10 -11 -7 -11 9 3 77 2 10 -1 14 -7
11 -12 -7 -7 48 7 80 6 13 5 17 -2 13 -7 -5 -9 1 -5 15 4 16 2 19 -8 13 -10
-6 -12 -4 -7 8 3 10 3 17 -2 17 -5 0 -12 11 -15 25 -4 14 -13 28 -20 31 -8 3
-12 14 -9 25 3 11 0 19 -6 19 -7 0 -9 5 -6 11 4 5 -3 18 -14 28 -12 10 -21 25
-21 34 0 9 -11 27 -24 40 -14 14 -22 28 -18 33 4 4 1 4 -5 0 -7 -4 -29 -3 -48
3 -19 5 -33 6 -31 3 2 -4 -11 -7 -29 -7 -18 0 -31 3 -28 8 2 4 -1 7 -7 7 -6 0
-8 5 -5 10 9 14 -55 12 -83 -3z" />
        <path d="M440 5809 c-41 -5 -88 -13 -105 -19 -28 -9 -29 -9 -11 5 11 9 14 15
7 15 -7 0 -26 -13 -42 -29 -16 -16 -29 -27 -29 -25 0 3 -12 -8 -26 -23 -14
-15 -22 -21 -18 -13 7 13 6 13 -10 0 -10 -8 -22 -24 -27 -37 -5 -13 -16 -23
-24 -23 -9 0 -13 5 -10 10 4 6 -12 10 -40 10 -25 0 -44 -3 -42 -7 5 -11 -30
-43 -38 -35 -3 4 -3 -2 1 -12 5 -14 4 -17 -4 -12 -13 8 -13 6 -16 -91 0 -35 3
-56 7 -50 5 7 7 3 4 -10 -3 -13 -1 -23 5 -23 5 0 6 -4 3 -10 -3 -5 -1 -10 5
-10 6 0 8 -4 5 -10 -3 -5 -1 -10 4 -10 6 0 10 -4 9 -9 -4 -14 44 -52 59 -47 7
3 12 2 12 -2 -3 -20 2 -33 11 -27 9 6 14 -8 11 -27 0 -5 3 -8 9 -8 5 0 7 -7 4
-15 -4 -8 -1 -15 5 -15 6 0 8 -7 5 -15 -4 -8 -1 -15 6 -15 6 0 8 -4 5 -10 -3
-5 -2 -10 3 -10 12 0 10 -56 -2 -67 -5 -5 -6 -2 -2 7 9 17 -23 -19 -56 -64
-13 -17 -16 -26 -7 -22 7 5 1 -4 -16 -19 -16 -14 -23 -24 -15 -20 8 4 6 -1 -4
-9 -11 -9 -16 -16 -12 -16 4 0 1 -7 -8 -15 -8 -9 -13 -22 -10 -30 4 -8 -1 -18
-10 -21 -9 -3 -13 -10 -10 -15 3 -5 0 -9 -6 -9 -7 0 -9 -7 -6 -16 3 -8 2 -13
-3 -9 -15 9 -11 -313 3 -328 7 -7 11 -18 8 -26 -3 -8 0 -11 6 -7 12 7 23 -19
16 -38 -3 -7 2 -20 10 -29 8 -8 12 -17 9 -21 -4 -3 -1 -6 5 -6 7 0 11 -8 10
-17 -3 -37 2 -54 14 -47 8 5 9 2 5 -9 -4 -10 -2 -17 4 -17 7 0 9 -11 5 -27 -5
-22 -4 -25 4 -13 8 11 9 5 4 -24 -4 -22 -3 -37 2 -33 5 3 9 -134 9 -323 0
-190 -4 -326 -9 -323 -5 4 -6 -24 -2 -65 4 -42 3 -73 -3 -76 -5 -3 -7 -16 -3
-28 4 -16 2 -19 -8 -13 -10 6 -11 2 -6 -19 4 -16 2 -26 -4 -26 -7 0 -9 -8 -5
-21 5 -15 4 -19 -4 -15 -6 4 -11 2 -11 -3 0 -6 6 -11 13 -11 6 0 4 -5 -6 -11
-12 -7 -15 -17 -11 -36 5 -19 4 -24 -6 -18 -9 6 -10 0 -5 -25 4 -18 3 -30 -1
-27 -5 3 -9 -59 -9 -138 0 -79 4 -138 8 -131 4 6 5 -6 1 -27 -5 -30 -3 -41 12
-53 11 -9 12 -12 4 -8 -12 6 -13 5 -4 -7 15 -18 25 -61 13 -53 -15 9 -10 -13
6 -30 10 -10 13 -24 9 -41 -4 -16 -2 -25 6 -25 8 0 11 -11 8 -29 -3 -18 0 -28
5 -24 7 4 8 -20 4 -65 -3 -40 -2 -72 2 -72 4 0 6 -37 4 -82 -3 -64 -2 -80 7
-68 9 12 10 2 7 -42 -3 -31 -2 -58 2 -60 4 -2 11 -25 14 -53 4 -32 3 -43 -3
-30 -8 18 -9 18 -9 -5 -1 -38 10 -71 22 -63 7 4 8 -11 4 -45 -4 -33 -2 -52 4
-52 6 0 8 -4 4 -9 -3 -5 -1 -12 4 -15 5 -3 6 -26 3 -51 -3 -29 -1 -45 6 -45 8
0 9 -31 5 -102 -4 -60 -3 -99 3 -96 5 4 9 -263 9 -662 0 -367 3 -666 6 -664
10 6 21 -64 14 -86 -4 -11 -2 -20 4 -20 6 0 7 -7 4 -17 -5 -11 -3 -14 6 -8 10
5 11 2 6 -14 -4 -14 -1 -23 9 -27 9 -3 16 -12 16 -19 0 -27 88 -35 113 -10 11
10 17 11 19 3 2 -6 26 -14 54 -17 75 -8 255 -7 294 1 26 6 31 5 20 -3 -12 -8
-9 -9 10 -3 44 12 82 51 86 88 1 12 5 31 9 44 5 14 3 22 -4 22 -7 0 -9 5 -6
10 3 6 -1 13 -9 16 -9 3 -16 14 -16 24 0 10 -7 34 -15 53 -18 43 -19 50 -4 41
8 -5 9 31 4 130 -5 98 -4 136 4 136 8 0 10 94 9 338 -2 278 -3 310 -9 182 -4
-94 -5 -25 -3 175 5 487 5 1075 0 1195 -3 68 -2 91 3 65 7 -37 8 -34 10 28 1
45 -3 66 -9 62 -8 -5 -9 18 -5 72 5 58 4 74 -5 63 -8 -11 -9 9 -5 80 5 68 3
91 -4 80 -8 -11 -10 0 -10 45 1 45 3 54 9 35 5 -14 8 57 9 170 0 118 -3 189
-8 181 -12 -19 -20 205 -9 238 8 22 7 23 -9 11 -10 -7 -4 0 12 15 17 16 30 31
30 35 0 3 8 14 18 24 9 10 17 26 17 36 0 24 29 33 76 24 24 -4 35 -3 31 3 -4
6 8 17 26 24 30 12 66 39 52 39 -4 0 0 7 8 15 11 11 13 30 10 79 -3 36 -2 73
2 83 13 28 15 134 3 127 -7 -5 -8 8 -4 40 5 33 4 46 -5 46 -8 0 -10 14 -5 51
5 39 4 49 -5 43 -9 -5 -10 -2 -6 9 3 10 2 17 -4 17 -6 0 -9 13 -7 30 2 20 -4
34 -17 45 -11 9 -14 14 -8 10 9 -4 11 -1 7 9 -3 9 -10 13 -15 10 -5 -3 -6 2
-3 10 3 9 2 16 -4 16 -6 0 -8 10 -4 22 4 15 2 19 -7 13 -10 -6 -11 0 -6 25 5
23 4 30 -4 25 -9 -5 -11 18 -11 82 1 48 -2 102 -5 118 -4 24 -3 26 4 10 9 -19
10 -19 10 3 1 12 -3 22 -8 22 -5 0 -7 10 -3 22 4 16 2 19 -8 13 -10 -6 -12 -4
-7 8 3 10 2 17 -4 17 -6 0 -8 4 -5 9 8 13 -41 54 -55 46 -8 -6 -10 -4 -4 5 6
10 4 12 -7 7 -10 -3 -24 3 -35 16 -18 22 -18 22 2 7 16 -11 15 -9 -2 7 -13 12
-23 27 -23 34 0 6 -7 9 -15 5 -8 -3 -14 0 -12 7 1 7 -4 11 -12 9 -10 -2 -12 5
-8 28 4 19 2 30 -4 30 -6 0 -9 9 -6 20 3 11 -3 29 -14 41 -15 18 -17 24 -7 31
7 4 9 8 4 8 -6 0 -2 6 9 13 12 9 15 19 10 28 -5 8 -5 11 0 7 9 -9 34 20 35 40
0 8 -5 10 -12 6 -8 -5 -9 -2 -4 11 4 10 2 21 -4 25 -6 4 -13 29 -15 56 -3 27
-7 65 -10 84 -5 27 -3 32 5 20 9 -12 10 -8 5 15 -4 17 -11 31 -16 33 -5 2 -6
15 -3 28 4 15 2 24 -6 24 -7 0 -10 7 -6 16 3 9 2 12 -5 9 -6 -4 -9 -1 -7 8 2
8 -6 23 -17 33 -12 11 -14 15 -5 9 8 -5 4 3 -9 18 -26 29 -37 35 -25 15 3 -7
-5 -1 -20 14 -23 24 -109 70 -125 67 -3 -1 -40 -5 -81 -10z m222 -768 c-17
-14 -22 -29 -21 -67 0 -38 2 -45 10 -29 6 14 8 -2 6 -52 -1 -40 1 -74 6 -76 5
-1 10 -13 11 -25 0 -13 6 -26 11 -30 6 -4 17 -16 25 -26 13 -18 13 -19 0 -12
-8 4 -1 -5 15 -19 17 -15 23 -24 15 -19 -13 7 -13 6 0 -12 8 -10 20 -22 25
-26 7 -5 7 -8 0 -8 -5 0 -3 -5 5 -10 11 -7 14 -25 13 -72 -2 -43 0 -58 7 -48
7 11 9 0 9 -35 -1 -44 -2 -46 -9 -20 -4 17 -8 23 -9 15 -1 -13 -3 -13 -10 -1
-5 8 -7 19 -5 25 3 7 -4 21 -14 32 -10 10 -16 26 -14 33 3 8 0 11 -7 7 -7 -4
-9 -2 -5 7 3 8 -4 24 -16 35 -12 11 -19 25 -16 31 4 6 -2 19 -14 31 -11 11
-17 20 -14 20 3 0 -2 8 -13 18 -10 9 -12 13 -3 8 8 -5 -1 7 -21 26 -19 19 -35
43 -33 52 1 9 -2 16 -8 16 -6 0 -7 7 -4 15 3 9 -1 18 -9 21 -8 4 -12 10 -9 15
3 5 0 9 -6 9 -6 0 -9 4 -5 9 3 5 -5 17 -17 25 -27 19 -30 64 -6 77 10 6 17 18
16 27 -3 16 1 18 43 21 11 0 17 6 14 11 -4 7 2 9 19 4 16 -4 26 -2 26 5 0 6 7
11 17 11 13 0 12 -3 -5 -19z" />
    </g>
</svg>
