<svg xmlns="http://www.w3.org/2000/svg" width="280.000000pt" height="640.000000pt"
    viewBox="0 0 280.000000 640.000000" preserveAspectRatio="xMidYMid meet">
    <metadata>
        Created by potrace 1.16, written by Peter Selinger 2001-2019
    </metadata>
    <g transform="translate(0.000000,640.000000) scale(0.100000,-0.100000)" fill="#000000"
        stroke="none">
        <path d="M1651 6383 c-5 -10 -12 -17 -15 -15 -3 1 -12 2 -18 2 -9 0 -8 -4 2
-10 13 -8 12 -10 -2 -10 -10 0 -18 -5 -18 -11 0 -5 -5 -7 -10 -4 -15 9 -40
-14 -40 -36 0 -11 -5 -19 -10 -19 -6 0 -10 -15 -9 -32 2 -18 2 -49 1 -68 -2
-27 -5 -31 -12 -20 -7 10 -10 -25 -12 -110 -2 -120 -4 -179 -8 -190 -7 -22 -7
-39 1 -35 5 4 6 -8 2 -26 -5 -24 -3 -30 7 -24 9 6 10 2 5 -16 -4 -13 -4 -21 0
-16 5 4 16 -14 24 -40 10 -29 22 -48 31 -48 20 0 28 -29 26 -97 -1 -53 -4 -57
-50 -100 -33 -31 -44 -47 -35 -51 11 -4 11 -6 1 -6 -7 -1 -24 11 -37 25 -20
22 -31 26 -65 22 -22 -2 -40 0 -40 4 0 18 -42 6 -62 -17 -12 -14 -30 -25 -40
-25 -10 0 -18 -7 -18 -16 0 -12 -6 -15 -22 -11 -16 5 -31 -1 -50 -20 -32 -31
-36 -57 -10 -72 9 -6 13 -11 9 -11 -4 0 -3 -9 3 -20 9 -16 8 -22 -5 -26 -8 -4
-20 -15 -26 -26 -7 -13 -7 -18 -1 -14 6 4 8 -2 5 -14 -3 -11 -9 -20 -14 -20
-5 0 -6 -7 -3 -15 4 -8 2 -15 -2 -15 -5 0 -9 -25 -10 -56 0 -35 -5 -58 -13
-64 -9 -5 -12 -20 -9 -38 2 -17 1 -29 -4 -26 -4 3 -8 0 -8 -5 0 -6 -23 -12
-52 -13 l-53 -1 65 -7 65 -6 -77 -4 c-42 -3 -74 -2 -71 3 2 4 -15 7 -39 8 -36
1 -39 2 -18 9 23 7 23 8 4 9 -12 1 -24 7 -27 15 -7 19 3 56 15 56 6 0 8 7 4
15 -3 8 -2 15 2 15 4 0 8 17 9 37 1 21 7 39 12 41 7 2 8 15 5 29 -5 20 -4 24
6 18 10 -6 12 -3 8 13 -4 12 -2 22 3 22 5 0 9 8 9 18 0 15 -2 15 -11 2 -8 -11
-9 -9 -3 10 4 14 11 28 16 31 6 4 7 17 3 29 -4 14 -3 20 3 17 5 -4 9 15 8 48
0 30 -4 51 -10 48 -5 -4 -6 5 -2 21 4 18 3 25 -4 21 -10 -6 -15 30 -12 83 0
12 -3 22 -8 22 -5 0 -7 7 -4 15 4 8 1 15 -6 15 -7 0 -10 7 -6 16 4 10 2 13 -6
8 -8 -5 -9 -2 -5 10 4 10 1 19 -8 22 -8 4 -12 10 -9 15 3 5 0 9 -6 9 -6 0 -9
4 -6 9 3 5 -4 11 -15 14 -12 3 -18 10 -15 15 3 5 -4 18 -17 28 -21 19 -21 19
-8 -1 8 -11 -3 -2 -24 20 -36 38 -40 40 -100 40 -36 0 -58 4 -52 8 7 5 2 6
-13 3 -14 -3 -30 -6 -36 -6 -6 0 -29 -18 -52 -40 -22 -22 -45 -40 -51 -40 -6
0 -11 -7 -11 -15 0 -7 -6 -18 -14 -22 -8 -4 -15 -10 -15 -13 0 -16 -14 -39
-21 -35 -8 5 -22 -25 -19 -41 3 -20 -2 -35 -10 -30 -5 4 -7 -4 -3 -16 3 -14 2
-19 -6 -14 -13 7 -17 -10 -13 -52 1 -16 -2 -21 -10 -16 -9 5 -10 0 -5 -20 3
-14 2 -26 -3 -26 -14 0 -21 -54 -8 -62 7 -5 8 -8 2 -8 -6 0 -9 -17 -7 -40 2
-22 0 -40 -4 -40 -5 0 -8 -63 -6 -141 2 -108 0 -139 -9 -133 -9 5 -10 0 -5
-20 4 -16 2 -26 -4 -26 -7 0 -9 -15 -5 -41 4 -25 3 -39 -3 -35 -12 7 -36 -49
-29 -68 6 -14 -10 -36 -27 -36 -5 0 -1 7 10 15 12 10 5 9 -21 -4 -48 -23 -81
-53 -90 -81 -4 -11 -11 -17 -17 -14 -7 5 -9 -4 -6 -24 3 -18 0 -29 -5 -25 -6
4 -7 -4 -3 -21 5 -19 2 -28 -9 -32 -8 -3 -12 -10 -9 -15 3 -5 1 -9 -5 -9 -6 0
-7 -7 -4 -17 4 -11 3 -14 -5 -9 -8 5 -10 2 -6 -8 3 -9 1 -16 -6 -16 -7 0 -9
-8 -5 -21 5 -15 4 -19 -4 -15 -7 5 -11 -2 -11 -18 0 -13 -3 -32 -7 -42 -4 -11
-2 -15 4 -11 6 4 8 -3 5 -18 -2 -14 -9 -22 -14 -19 -7 4 -8 -5 -3 -26 5 -21 4
-30 -3 -26 -5 3 -12 -9 -15 -27 -2 -17 -1 -33 2 -35 10 -3 1 -62 -9 -62 -5 0
-6 -10 -2 -22 4 -16 2 -19 -8 -13 -10 6 -12 1 -7 -24 4 -20 3 -30 -3 -26 -6 4
-10 -9 -10 -30 0 -22 4 -34 10 -30 6 4 10 -6 9 -22 0 -24 -2 -25 -8 -8 -5 11
-8 -168 -8 -397 0 -236 3 -415 8 -412 5 3 9 0 9 -5 0 -6 -4 -11 -10 -11 -6 0
-10 -35 -10 -86 0 -54 4 -83 10 -79 6 4 10 -5 10 -20 0 -15 -4 -24 -10 -20 -5
3 -10 -1 -10 -9 0 -9 4 -16 10 -16 5 0 6 -7 3 -17 -4 -11 -3 -14 5 -9 8 5 12
-3 12 -26 0 -26 -3 -30 -11 -18 -7 11 -8 3 -3 -29 4 -30 3 -41 -5 -37 -7 5
-10 -17 -9 -68 0 -43 4 -73 10 -70 5 3 6 -6 2 -22 -5 -19 -4 -25 5 -20 8 6 10
0 5 -18 -4 -16 -2 -26 5 -26 6 0 11 -11 11 -24 0 -15 11 -33 26 -45 15 -12 24
-21 20 -21 -4 0 0 -7 9 -16 13 -14 18 -14 32 -2 12 9 15 9 9 0 -4 -7 -1 -15 9
-18 10 -4 13 -13 9 -26 -4 -15 -3 -18 6 -13 10 6 12 1 7 -23 -4 -20 -2 -32 4
-32 7 0 9 -10 5 -25 -4 -15 -2 -25 5 -25 7 0 8 -11 4 -30 -4 -20 -3 -30 5 -30
9 0 11 -12 6 -40 -3 -22 -2 -40 3 -40 5 0 7 -9 4 -20 -3 -11 -1 -20 4 -20 5 0
7 -14 5 -31 -3 -22 -1 -30 7 -25 8 5 11 -14 11 -66 0 -40 3 -91 6 -113 4 -32
3 -37 -6 -25 -10 12 -11 11 -7 -7 3 -13 1 -23 -4 -23 -5 0 -9 -12 -9 -26 0
-14 4 -23 10 -19 5 3 10 1 10 -4 0 -6 -4 -11 -10 -11 -5 0 -6 -7 -3 -17 4 -10
2 -14 -4 -10 -14 9 -24 -79 -16 -143 4 -32 2 -50 -5 -50 -7 0 -9 -20 -5 -57 3
-43 2 -54 -6 -43 -8 11 -11 -1 -11 -48 0 -44 3 -61 11 -56 8 5 9 -6 4 -35 -5
-29 -3 -41 5 -41 8 0 11 -13 8 -39 -2 -22 0 -37 4 -35 5 3 8 -5 8 -18 0 -13
-3 -18 -8 -12 -5 9 -10 8 -19 -1 -10 -11 -8 -15 10 -18 14 -3 9 -5 -14 -6 -20
0 -52 -3 -70 -6 -27 -4 -30 -3 -14 5 15 7 10 8 -20 3 -53 -8 -53 -8 -65 -54
-12 -45 -10 -414 2 -395 5 6 8 1 8 -12 0 -13 -4 -20 -10 -17 -6 4 -10 -10 -10
-34 0 -23 4 -41 9 -41 4 0 6 -33 4 -72 -3 -56 -2 -70 7 -58 9 12 11 7 8 -23
-2 -20 -1 -37 3 -37 4 0 9 -18 11 -39 2 -22 0 -37 -4 -35 -5 3 -8 0 -8 -5 0
-6 4 -11 10 -11 5 0 7 -7 4 -15 -4 -8 -1 -15 5 -15 6 0 8 -7 5 -15 -4 -8 -1
-15 6 -15 8 0 11 -9 8 -25 -3 -14 -1 -28 3 -31 5 -3 9 -13 9 -22 0 -15 -2 -15
-10 -2 -6 9 -10 10 -10 3 0 -7 11 -23 24 -37 18 -21 33 -26 70 -26 25 0 46 5
46 10 0 6 7 10 16 10 8 0 13 4 10 8 -2 4 7 9 20 10 14 1 23 -2 20 -7 -3 -5 6
-17 20 -26 15 -9 24 -13 21 -9 -3 5 50 9 117 10 78 1 110 -2 91 -7 -25 -7 -23
-7 10 -3 22 3 76 7 120 9 62 3 70 2 35 -4 -37 -7 -28 -8 45 -7 85 1 90 2 102
26 7 14 13 21 14 15 1 -5 5 10 8 35 7 53 2 92 -10 84 -9 -5 -13 9 -10 35 2 7
-2 10 -8 6 -7 -3 -8 0 -5 9 3 9 1 16 -6 16 -6 0 -9 4 -6 9 3 5 -1 12 -10 15
-8 3 -13 10 -9 15 3 6 -1 13 -9 18 -8 4 -15 11 -16 15 -2 21 -13 37 -21 32 -5
-3 -9 4 -9 15 0 11 -9 25 -21 31 -11 7 -18 18 -15 26 3 7 0 17 -7 21 -17 11
-45 49 -30 39 9 -5 11 -2 7 8 -3 9 -10 13 -15 10 -5 -3 -9 -2 -10 3 0 4 -2 18
-3 31 -2 12 -12 32 -24 43 -22 20 -30 35 -13 25 13 -8 -11 56 -27 72 -7 8 -9
18 -6 24 4 7 2 8 -4 4 -7 -4 -12 -1 -12 9 0 10 -5 13 -12 9 -11 -7 -10 10 7
99 3 16 1 27 -5 27 -7 0 -8 5 -3 13 4 6 8 16 8 22 0 5 11 12 25 16 14 4 21 8
15 8 -5 1 -2 6 8 12 9 6 15 14 12 20 -7 11 12 32 38 42 9 3 22 18 27 32 6 15
14 24 19 21 5 -3 14 1 21 9 7 8 20 15 29 15 12 0 13 2 3 9 -10 6 -8 10 8 14
14 4 19 10 14 18 -4 7 -3 10 3 6 6 -4 13 0 17 8 3 8 12 15 21 15 8 0 15 6 15
14 0 8 5 18 12 22 7 4 8 3 4 -4 -10 -17 13 -15 31 3 8 9 13 22 10 30 -3 7 1
19 9 25 8 7 14 9 14 5 0 -4 7 -2 15 5 8 6 13 17 12 23 -1 7 4 11 11 10 6 -2
12 3 12 11 0 7 15 24 34 37 19 13 37 32 40 42 2 11 9 16 15 12 6 -3 19 -1 28
5 16 10 16 11 -2 6 -19 -6 -19 -6 -1 9 10 8 23 12 28 9 5 -3 12 3 15 15 3 12
11 21 19 21 7 0 16 5 20 12 5 7 3 8 -6 3 -9 -5 -11 -4 -6 3 4 7 14 12 22 12 8
0 14 3 14 8 0 4 16 16 35 26 19 11 35 25 35 33 0 8 5 11 10 8 9 -6 14 8 11 28
0 4 4 7 9 7 5 0 9 3 9 8 -3 20 2 32 12 26 8 -4 9 1 4 16 -4 12 -3 20 1 17 5
-3 9 12 9 34 0 21 -4 39 -9 39 -5 0 -6 23 -4 50 3 28 2 50 -3 50 -4 0 -5 9 -2
20 3 11 0 27 -7 35 -7 8 -10 25 -6 40 4 16 2 25 -5 25 -8 0 -10 12 -6 35 3 20
2 35 -4 35 -5 0 -6 12 -3 26 5 21 4 25 -6 19 -10 -6 -11 -2 -6 19 4 17 2 26
-5 26 -7 0 -9 11 -5 30 3 18 1 30 -5 30 -6 0 -8 9 -4 20 3 11 2 20 -2 20 -5 0
-14 18 -19 40 -6 22 -7 37 -3 34 5 -3 9 0 9 5 0 6 -4 11 -10 11 -5 0 -7 7 -4
15 4 8 2 15 -4 15 -5 0 -14 18 -20 40 -5 22 -6 37 -1 34 5 -3 9 2 9 10 0 9 -5
16 -11 16 -6 0 -8 9 -4 21 5 16 4 19 -5 14 -9 -5 -10 -2 -5 14 4 14 2 21 -6
21 -7 0 -9 3 -6 7 4 3 1 13 -6 21 -9 13 -9 14 0 8 9 -5 11 -2 7 8 -3 9 -10 16
-16 16 -5 0 -6 5 -2 11 3 6 1 15 -7 19 -7 5 -13 26 -13 48 -1 22 -4 38 -8 35
-7 -4 -12 20 -9 40 0 4 -4 7 -9 7 -7 0 -8 13 -4 35 5 29 2 39 -15 54 -16 14
-20 28 -18 70 1 35 -2 54 -12 60 -9 6 -10 11 -2 15 6 4 9 12 6 17 -4 5 -1 9 4
9 6 0 11 7 11 16 0 9 -5 12 -12 8 -7 -5 -8 -3 -3 6 4 7 7 44 6 83 -2 48 1 67
8 62 8 -4 10 11 5 52 -4 44 -3 54 6 43 8 -11 10 4 8 63 -2 42 0 77 5 77 11 0
9 208 -3 215 -6 4 -8 11 -4 16 3 6 6 43 5 84 0 41 3 77 8 80 5 3 8 25 6 50 -1
26 2 45 7 45 6 0 8 11 6 25 -3 14 -1 25 5 25 5 0 7 11 5 25 -3 14 -1 25 3 25
5 0 9 5 9 11 0 5 -4 7 -10 4 -6 -3 -7 1 -4 9 3 9 10 16 16 16 5 0 7 4 4 9 -3
5 1 12 10 15 22 8 26 8 19 -3 -3 -6 3 -15 14 -21 12 -6 18 -16 14 -25 -5 -15
61 -90 78 -90 4 0 11 -4 16 -9 5 -5 2 -6 -7 -2 -8 4 -5 -1 8 -12 12 -11 22
-28 23 -39 0 -16 1 -16 9 2 6 13 7 5 3 -25 -3 -25 -9 -46 -13 -48 -5 -2 -5
-12 -2 -24 3 -14 1 -19 -6 -14 -7 4 -9 -11 -5 -50 4 -37 3 -55 -4 -51 -6 4 -8
-3 -5 -18 2 -15 0 -25 -7 -25 -7 0 -9 -9 -5 -26 5 -21 4 -25 -6 -19 -10 6 -12
0 -7 -28 3 -22 2 -37 -4 -37 -6 0 -7 -14 -4 -34 4 -19 2 -36 -3 -40 -6 -3 -8
-15 -5 -26 3 -12 0 -20 -7 -20 -8 0 -11 -12 -8 -35 2 -19 0 -35 -4 -35 -4 0
-8 -9 -8 -20 0 -11 3 -20 8 -20 4 0 6 -43 5 -95 -1 -60 1 -93 7 -90 6 4 10
-14 10 -42 1 -26 5 -67 9 -90 5 -28 5 -40 -2 -36 -7 4 -8 -8 -4 -33 4 -21 7
-46 8 -54 0 -10 3 -9 10 5 7 16 9 14 6 -13 -2 -17 1 -32 6 -32 5 0 7 -12 4
-27 -7 -37 3 -84 16 -76 7 4 8 0 3 -12 -4 -11 -2 -22 5 -26 8 -4 14 -38 15
-86 2 -43 3 -87 4 -98 0 -15 2 -17 9 -7 13 21 23 -62 15 -129 -4 -37 -3 -59 3
-59 6 0 9 -20 7 -47 -3 -38 -2 -44 6 -28 9 17 10 15 7 -12 -2 -19 1 -29 6 -26
7 4 8 -11 4 -40 -5 -35 -3 -50 9 -62 18 -17 38 -79 23 -70 -14 9 -11 -13 4
-27 8 -7 12 -20 9 -30 -2 -10 1 -18 8 -18 9 0 11 -27 8 -103 -2 -83 -7 -107
-21 -121 -18 -18 -15 -54 6 -67 5 -4 7 -14 4 -23 -4 -9 -2 -16 3 -16 6 0 10
-5 10 -11 0 -5 -3 -8 -7 -6 -5 3 -8 -40 -8 -94 0 -54 3 -99 7 -99 3 0 8 -22
10 -49 1 -27 0 -47 -4 -44 -5 2 -8 -1 -8 -6 0 -6 5 -11 11 -11 7 0 8 -11 4
-31 -5 -24 -4 -30 5 -24 10 6 11 1 6 -19 -3 -14 -2 -26 3 -26 5 0 11 -15 13
-34 2 -19 0 -32 -4 -30 -4 3 -8 0 -8 -5 0 -6 4 -11 9 -11 5 0 8 -12 6 -28 -1
-15 2 -30 9 -34 7 -6 8 -10 1 -15 -13 -10 -18 -153 -5 -153 5 0 7 -7 4 -15 -4
-8 -1 -15 5 -15 6 0 11 -5 11 -11 0 -5 -4 -7 -10 -4 -5 3 -10 1 -10 -4 0 -6 5
-11 11 -11 7 0 9 -10 5 -25 -4 -16 -2 -25 5 -25 6 0 9 -6 6 -14 -3 -8 0 -22 8
-32 7 -10 10 -25 7 -33 -3 -9 -1 -12 6 -7 8 5 10 2 6 -8 -3 -9 -10 -16 -15
-16 -5 0 -9 -9 -9 -21 0 -11 4 -18 9 -15 23 15 28 -92 5 -120 -8 -10 -12 -12
-8 -4 4 9 3 12 -2 7 -9 -8 -10 -13 -13 -40 0 -8 -10 -24 -21 -37 -11 -12 -17
-28 -13 -34 3 -6 3 -8 -2 -4 -9 8 -52 -42 -47 -55 1 -5 -2 -6 -8 -2 -16 10
-67 -35 -91 -82 -13 -25 -33 -53 -45 -62 -16 -13 -21 -25 -17 -40 3 -11 9 -21
13 -21 4 0 10 -11 12 -25 3 -13 1 -22 -3 -19 -16 10 -9 -13 10 -35 12 -14 25
-20 32 -15 7 4 9 3 6 -3 -8 -13 26 -23 73 -21 33 1 33 1 -10 9 -27 4 -6 5 53
2 117 -6 329 5 321 18 -3 5 9 6 27 2 23 -4 30 -3 25 5 -5 8 -1 10 9 6 19 -8
80 50 70 66 -3 5 -2 10 4 10 6 0 7 15 4 37 -4 26 -3 34 5 29 8 -5 12 1 12 14
0 12 -5 18 -10 15 -6 -4 -10 12 -10 42 0 26 -3 59 -5 73 -5 22 -4 22 4 5 7
-16 10 -8 10 33 1 28 -3 52 -8 52 -4 0 -6 12 -4 28 4 21 2 24 -6 12 -8 -11
-11 -2 -11 40 0 42 3 51 11 40 8 -11 9 -6 5 23 -2 20 -1 35 4 32 7 -4 5 50 -5
98 -2 9 1 15 6 11 5 -3 9 -1 9 5 0 5 -6 11 -12 14 -10 3 -10 9 0 27 8 12 10
20 5 17 -4 -3 -8 28 -8 68 0 40 4 68 8 62 5 -7 5 4 1 23 -3 19 -10 36 -15 38
-4 2 -5 10 -2 18 3 8 1 14 -5 14 -5 0 -12 9 -15 20 -3 11 -2 18 2 16 4 -3 5
25 3 62 -2 49 0 63 7 52 9 -12 11 -9 11 13 0 16 -4 26 -10 22 -6 -4 -10 21
-10 69 0 41 -3 83 -6 93 -5 15 -4 15 5 3 9 -12 11 -9 11 17 0 17 -4 34 -9 37
-4 3 -7 30 -6 60 2 39 -1 56 -11 60 -16 6 -19 56 -4 56 14 0 12 27 -2 34 -10
5 -10 7 0 12 14 6 17 104 3 104 -13 0 -21 42 -11 55 6 7 7 15 3 18 -3 4 0 7 7
7 10 0 11 15 7 60 -3 35 -1 58 4 54 5 -3 8 25 8 63 -1 54 -3 62 -9 38 -5 -17
-6 29 -3 105 3 97 1 131 -6 120 -8 -11 -11 -2 -11 38 0 31 4 52 11 52 8 0 9
15 4 46 -5 34 -3 44 5 39 9 -5 11 12 8 64 -1 39 0 71 5 71 4 0 7 7 7 15 0 8 5
15 11 15 5 0 7 -5 3 -11 -3 -6 -2 -14 4 -18 6 -4 13 -26 14 -49 2 -23 7 -42
11 -42 5 0 5 -10 2 -21 -5 -15 -4 -19 4 -15 7 5 12 -3 13 -21 1 -15 2 -35 4
-43 1 -8 2 -25 3 -38 1 -15 5 -21 12 -16 8 5 10 -1 7 -20 -3 -14 -2 -26 2 -26
4 0 11 -7 14 -16 4 -10 2 -13 -6 -8 -8 5 -9 0 -5 -17 4 -13 7 -33 7 -44 0 -17
2 -18 11 -5 8 12 9 9 5 -12 -4 -16 -2 -28 3 -28 5 0 11 -11 13 -25 3 -13 2
-22 -3 -19 -4 2 -5 -13 -2 -33 3 -21 10 -40 15 -41 4 -2 6 -8 2 -13 -3 -5 0
-9 6 -9 8 0 11 -14 8 -39 -2 -22 0 -37 4 -35 5 3 8 -7 8 -21 0 -14 -3 -24 -7
-22 -5 3 -8 -8 -8 -23 0 -15 4 -26 9 -22 5 3 6 -8 3 -26 -4 -18 -2 -32 3 -32
5 0 6 -7 3 -17 -5 -12 -3 -14 7 -8 10 6 12 0 8 -24 -2 -17 -1 -31 4 -31 13 0
9 -38 -4 -42 -7 -3 -9 -11 -4 -24 4 -10 8 -71 7 -134 0 -63 -1 -148 -1 -188
-1 -50 -4 -71 -12 -66 -7 5 -9 -10 -6 -49 2 -31 1 -54 -4 -51 -4 3 -7 -63 -5
-145 1 -83 6 -151 10 -151 5 0 6 -14 2 -31 -6 -24 -4 -30 6 -24 9 6 11 -2 6
-38 -4 -29 -3 -47 3 -47 18 0 7 -60 -11 -65 -10 -3 -20 -13 -23 -21 -3 -8 -2
-12 4 -9 6 3 10 -1 10 -9 0 -9 -4 -16 -8 -16 -5 0 -9 -7 -9 -15 0 -8 5 -15 10
-15 5 0 6 -8 3 -17 -5 -11 1 -24 16 -36 14 -11 19 -20 12 -23 -7 -3 -9 -14 -6
-26 4 -15 2 -19 -8 -13 -9 6 -11 -2 -5 -35 5 -30 4 -41 -4 -36 -7 5 -11 -5
-11 -28 0 -20 5 -36 10 -36 6 0 10 -7 10 -16 0 -8 -5 -12 -11 -8 -8 4 -9 -1
-4 -15 4 -13 1 -29 -7 -38 -11 -14 -11 -16 1 -8 11 6 13 4 6 -11 -10 -23 -9
-75 2 -83 5 -3 13 -15 19 -25 6 -11 16 -22 24 -24 7 -3 10 0 7 5 -3 5 10 7 31
4 l37 -5 -30 -7 c-30 -7 -30 -7 -3 -8 14 0 35 -4 45 -7 15 -5 16 -4 3 6 -12 9
-9 10 15 5 16 -4 33 -11 36 -17 4 -6 14 -8 23 -5 9 4 16 3 16 -2 0 -8 52 -33
100 -48 13 -4 13 -4 0 7 -12 9 -10 10 10 4 14 -4 60 -12 103 -18 43 -6 76 -14
72 -17 -3 -4 48 -7 114 -8 l119 -2 6 36 c4 20 6 63 5 96 -2 55 -4 60 -28 66
-23 6 -23 7 -6 13 17 6 16 8 -8 14 -17 4 -27 13 -27 25 0 17 -29 51 -43 51 -3
0 -25 19 -48 43 -22 23 -37 35 -33 27 7 -13 5 -13 -9 -1 -9 7 -17 19 -17 27 0
7 -9 16 -20 19 -11 3 -20 12 -20 19 0 7 -10 21 -22 32 -23 19 -23 19 -8 -2 8
-11 2 -7 -13 9 -23 23 -26 31 -16 43 9 11 9 20 1 37 -7 12 -10 34 -8 49 2 16
-1 28 -7 28 -6 0 -8 3 -4 6 3 4 -1 13 -10 22 -14 14 -14 16 3 22 15 6 18 20
19 98 1 50 -2 97 -7 104 -4 7 -8 9 -8 3 0 -5 -4 -4 -9 4 -10 16 -3 51 11 51 6
0 7 7 4 16 -3 8 -2 13 2 10 4 -2 7 63 7 145 0 115 3 152 14 158 9 6 11 19 6
42 -4 23 -3 29 3 20 7 -9 9 40 8 142 -2 100 1 154 7 150 6 -4 7 3 3 18 -4 13
-9 35 -12 49 -2 14 -7 31 -9 38 -2 6 0 12 5 12 6 0 10 29 10 65 0 36 -4 65 -8
65 -5 0 -6 14 -4 31 3 21 1 30 -6 25 -7 -4 -10 18 -9 68 1 41 5 72 10 69 7 -4
11 12 8 36 -2 7 2 10 8 7 6 -4 8 7 5 31 -4 29 -3 34 5 23 8 -11 11 -4 11 33 0
26 -5 47 -11 47 -6 0 -9 21 -8 53 1 28 -1 59 -5 68 -4 9 -6 33 -5 55 5 84 -1
175 -11 169 -6 -4 -9 5 -8 19 1 15 6 26 10 26 13 0 9 68 -4 72 -7 3 -13 22
-13 46 0 23 -2 42 -5 42 -3 0 -4 16 -2 36 4 28 2 35 -8 29 -10 -6 -12 -3 -6
10 4 10 3 21 -2 24 -5 3 -12 20 -16 36 -5 22 -4 26 4 15 8 -12 10 -11 10 8 0
12 -4 22 -8 22 -5 0 -7 15 -5 33 3 24 2 29 -6 17 -9 -12 -11 -10 -11 13 0 15
5 27 10 27 6 0 10 14 10 31 0 17 -4 28 -10 24 -6 -4 -6 4 1 22 6 15 10 30 10
33 -1 3 2 5 7 5 4 0 19 9 32 20 22 17 26 29 27 88 1 37 -1 65 -5 63 -4 -2 -5
21 -4 51 3 39 1 53 -7 49 -7 -5 -11 6 -11 33 0 23 5 41 10 41 6 0 10 15 10 33
0 25 -3 29 -11 17 -8 -11 -9 -6 -7 23 2 20 0 37 -5 37 -5 0 -7 14 -3 30 7 38
-3 92 -17 83 -6 -4 -8 3 -3 21 4 16 2 26 -4 26 -7 0 -9 8 -5 21 5 15 4 19 -4
15 -6 -4 -11 0 -11 9 0 9 5 13 10 10 6 -3 10 1 10 9 0 9 -5 16 -10 16 -6 0 -8
11 -4 26 5 19 3 25 -4 20 -8 -5 -10 3 -6 26 4 22 3 29 -4 19 -7 -10 -11 -6
-14 17 -3 24 -1 28 15 24 11 -3 24 3 33 17 9 12 20 18 26 15 6 -4 8 -2 5 3 -4
6 0 14 9 17 8 3 14 11 13 18 -3 26 1 39 12 33 6 -4 13 2 16 13 3 11 11 23 19
26 8 3 14 12 14 21 0 8 5 15 11 15 5 0 8 4 5 9 -4 5 -1 11 6 13 7 3 13 18 14
34 1 16 3 49 4 74 l3 45 7 -40 c4 -24 8 31 9 138 1 132 -2 176 -10 171 -9 -5
-10 7 -5 45 5 40 4 51 -5 45 -9 -5 -10 -1 -7 14 4 12 2 25 -3 28 -5 3 -9 11
-9 17 0 7 4 6 10 -3 8 -12 10 -11 10 8 0 12 -4 22 -8 22 -5 0 -7 14 -4 30 3
18 0 30 -7 30 -8 0 -9 13 -5 42 5 30 4 39 -4 34 -8 -5 -12 3 -12 23 0 16 -3
37 -7 47 -4 12 -3 15 5 10 7 -4 12 -2 12 3 0 6 -4 11 -10 11 -5 0 -7 13 -3 30
3 18 1 30 -5 30 -5 0 -8 10 -4 22 4 16 2 19 -8 13 -10 -6 -12 -2 -8 18 3 16 1
24 -5 20 -6 -4 -8 2 -5 15 4 12 2 22 -4 22 -5 0 -6 5 -3 10 3 6 2 10 -4 10 -6
0 -8 7 -5 15 4 8 1 15 -5 15 -6 0 -11 7 -11 15 0 8 -4 15 -9 15 -5 0 -13 9
-16 20 -4 11 -9 18 -13 16 -9 -5 -33 20 -26 27 3 2 -4 7 -16 10 -11 3 -18 1
-14 -4 3 -5 0 -9 -5 -9 -6 0 -11 4 -11 10 0 5 -7 7 -15 4 -8 -4 -15 -1 -15 6
0 7 -7 10 -15 6 -8 -3 -15 -1 -15 5 0 6 -7 8 -16 5 -10 -4 -13 -2 -8 6 5 8 2
9 -9 5 -20 -8 -49 2 -42 13 6 10 -64 35 -72 26 -4 -3 2 -6 12 -6 10 0 16 -3
12 -6 -8 -8 -48 6 -42 15 2 5 -8 6 -23 4 -21 -4 -24 -2 -12 6 12 9 11 11 -7
11 -12 0 -25 5 -29 12 -5 7 -3 8 7 3 12 -8 12 -6 0 8 -7 9 -17 17 -22 17 -13
0 -48 37 -42 44 3 3 -2 8 -11 12 -12 4 -16 19 -16 53 0 33 3 42 10 31 8 -12
10 -9 10 13 0 16 5 37 10 48 8 14 7 19 -2 20 -7 0 2 6 21 13 26 9 35 18 37 41
2 15 7 31 11 34 11 8 13 151 2 151 -5 0 -8 3 -7 8 3 15 -15 42 -24 36 -6 -4
-7 2 -3 16 5 16 4 20 -5 15 -10 -6 -12 8 -8 59 2 36 0 66 -5 66 -4 0 -5 5 -2
10 3 6 1 10 -6 10 -7 0 -9 10 -7 25 3 14 1 25 -3 25 -5 0 -9 12 -9 28 0 17 -8
32 -20 40 -12 7 -18 16 -16 21 3 4 -6 19 -19 31 -14 13 -25 19 -25 15 0 -5 -7
0 -15 12 -9 13 -22 20 -30 17 -8 -4 -15 -2 -15 4 0 6 -46 10 -114 11 -101 2
-116 0 -125 -16z m-1008 -3949 c-3 -9 4 -24 16 -35 14 -13 20 -27 16 -39 -3
-10 1 -25 10 -34 9 -9 13 -16 8 -16 -4 0 -2 -4 4 -8 7 -4 14 -17 16 -29 1 -12
9 -29 17 -39 8 -9 14 -19 13 -21 -8 -10 -1 -23 9 -17 8 5 9 2 5 -9 -3 -10 -2
-17 4 -17 6 0 7 -4 4 -10 -3 -5 6 -21 20 -34 15 -14 24 -29 21 -34 -3 -6 1
-13 10 -16 8 -3 12 -10 9 -16 -3 -5 -1 -10 5 -10 6 0 9 -8 6 -18 -4 -10 1 -27
9 -38 8 -10 15 -31 15 -46 0 -15 6 -33 13 -40 14 -13 11 -58 -4 -58 -5 0 -9
-7 -9 -17 0 -9 -3 -14 -6 -10 -8 8 -33 -16 -27 -25 2 -5 -1 -8 -7 -8 -17 0
-61 -36 -53 -44 3 -3 0 -6 -9 -6 -18 0 -61 -44 -51 -53 3 -4 0 -7 -9 -7 -8 0
-32 -21 -54 -46 -21 -25 -45 -52 -51 -59 -7 -8 -13 -21 -13 -30 0 -9 -4 -13
-10 -10 -5 3 -10 0 -10 -8 0 -8 -7 -20 -15 -27 -13 -11 -15 -8 -15 14 0 15 4
25 9 22 5 -4 7 3 4 14 -3 12 0 20 7 20 9 0 11 12 7 40 -3 26 -1 38 5 34 6 -4
8 1 3 15 -7 24 2 64 14 56 5 -2 7 17 5 43 -3 36 -2 42 6 27 7 -14 9 9 7 82 -1
56 1 99 5 97 5 -3 8 0 8 5 0 6 -4 11 -10 11 -6 0 -10 49 -10 128 0 173 11 352
22 346 4 -3 8 0 8 7 0 9 3 9 14 -1 8 -6 12 -18 9 -26z" />
    </g>
</svg>
