<svg xmlns="http://www.w3.org/2000/svg" width="203.000000pt" height="400.000000pt"
    viewBox="0 0 203.000000 400.000000" preserveAspectRatio="xMidYMid meet">
    <metadata>
        Created by potrace 1.16, written by Peter Selinger 2001-2019
    </metadata>
    <g transform="translate(0.000000,400.000000) scale(0.100000,-0.100000)" fill="#000000"
        stroke="none">
        <path d="M976 3979 c-136 -14 -224 -55 -295 -135 -64 -73 -88 -133 -106 -269
-32 -241 -120 -580 -177 -688 -26 -48 -55 -79 -145 -154 -96 -81 -117 -104
-142 -156 -45 -95 -101 -231 -101 -247 0 -8 12 -26 26 -41 23 -24 28 -41 35
-116 5 -48 13 -133 18 -188 6 -55 11 -132 11 -170 0 -80 42 -314 70 -394 29
-81 57 -116 250 -305 l178 -174 -14 -343 c-7 -189 -13 -401 -14 -471 l0 -128
644 0 c358 0 655 4 668 9 13 5 51 35 86 66 l62 57 0 106 c0 58 -4 119 -10 136
-5 17 -16 117 -25 222 -25 297 -74 505 -125 531 -25 13 -25 13 -2 13 26 0 28
12 8 43 -22 34 -117 272 -185 464 l-61 172 0 238 c1 363 13 550 39 601 34 66
29 96 -23 131 -57 39 -122 113 -153 175 -14 27 -36 98 -50 159 -23 104 -24
124 -21 361 l3 251 -27 47 c-42 70 -126 156 -179 184 -53 26 -96 29 -243 13z
m-448 -2359 c43 -99 85 -233 97 -310 l7 -45 -32 30 c-18 17 -63 65 -101 108
l-69 77 1 198 1 197 27 -80 c16 -44 47 -123 69 -175z" />
    </g>
</svg>
