<svg xmlns="http://www.w3.org/2000/svg" width="111.000000pt" height="236.000000pt"
    viewBox="0 0 111.000000 236.000000" preserveAspectRatio="xMidYMid meet">
    <metadata>
        Created by potrace 1.16, written by Peter Selinger 2001-2019
    </metadata>
    <g transform="translate(0.000000,236.000000) scale(0.100000,-0.100000)" fill="#000000"
        stroke="none">
        <path d="M477 2340 c-11 -13 -10 -13 6 -1 9 8 19 12 22 10 2 -2 -13 -15 -33
-28 -30 -20 -34 -21 -22 -5 14 17 14 18 -1 6 -12 -9 -17 -27 -16 -62 1 -26 5
-46 9 -44 4 3 12 -12 17 -33 12 -44 13 -80 1 -43 -7 23 -8 23 -9 3 -1 -12 4
-25 9 -28 6 -4 7 -11 4 -17 -4 -6 -3 -8 3 -5 6 4 15 -5 22 -19 14 -31 14 -37
0 -28 -8 4 -8 0 0 -15 7 -11 14 -21 17 -21 3 0 2 5 -2 12 -4 7 -3 8 4 4 7 -4
12 -14 12 -22 0 -8 6 -14 13 -14 8 0 22 -9 33 -21 18 -20 18 -21 -2 -57 -11
-20 -24 -36 -30 -35 -5 1 -10 -29 -12 -65 -2 -37 -7 -68 -11 -70 -4 -1 -6 -15
-3 -30 2 -15 -7 -50 -22 -82 -14 -30 -26 -66 -26 -80 0 -30 -17 -51 -35 -43
-8 2 -38 -20 -68 -50 -49 -49 -129 -105 -113 -78 4 7 1 8 -8 5 -9 -3 -14 -10
-11 -14 6 -10 -21 -20 -70 -24 -20 -2 -44 -12 -53 -22 -15 -16 -14 -16 8 1
l25 20 -24 -27 c-13 -15 -28 -26 -34 -25 -5 1 -12 -5 -14 -13 -4 -13 -3 -13 7
0 10 13 11 12 6 -3 -3 -10 -6 -26 -7 -35 0 -14 -2 -13 -9 3 -5 11 -9 15 -9 8
-2 -31 23 -63 48 -63 20 0 23 2 11 10 -9 6 -10 10 -3 10 7 0 17 -8 22 -17 9
-15 10 -16 11 -2 0 9 12 21 28 28 l27 12 -25 -22 -25 -21 33 19 c19 10 51 37
73 61 38 40 58 55 43 30 -5 -8 -2 -9 10 -5 10 4 22 7 27 7 5 0 9 6 9 13 0 8
16 18 35 24 19 6 33 7 29 2 -3 -5 0 -9 5 -9 6 0 11 4 11 10 0 5 15 17 33 25
28 14 30 14 13 0 -11 -8 -16 -15 -10 -15 14 0 31 14 36 30 3 8 3 -28 0 -80 -3
-53 -10 -98 -16 -102 -6 -4 -7 -8 -2 -8 5 0 3 -7 -4 -15 -7 -9 -10 -18 -6 -22
3 -3 6 0 7 8 0 8 5 3 10 -11 11 -28 -8 -120 -21 -100 -5 7 -10 1 -14 -15 -4
-15 -5 -30 -1 -33 3 -3 5 3 5 13 0 10 2 16 5 13 3 -3 -6 -52 -19 -109 -14 -57
-30 -135 -37 -174 -9 -55 -14 -66 -21 -50 -7 17 -8 16 -3 -5 2 -14 5 -29 5
-35 0 -5 4 -4 9 4 15 23 26 -55 12 -85 -6 -14 -11 -40 -11 -58 0 -21 -6 -36
-15 -40 -8 -3 -15 -16 -14 -28 1 -22 1 -22 9 2 15 47 11 -11 -5 -73 -18 -68
-51 -137 -66 -137 -6 0 -3 7 5 16 23 23 20 30 -4 9 -11 -10 -20 -26 -20 -36 0
-33 -36 -42 -135 -35 -76 6 -94 4 -105 -9 -8 -10 -9 -15 -1 -15 6 0 11 -5 11
-11 0 -5 -6 -7 -12 -3 -7 4 -2 -5 12 -21 31 -34 99 -85 114 -85 6 1 -1 8 -16
16 -43 23 -33 25 15 4 24 -11 63 -22 87 -26 25 -4 50 -13 55 -20 6 -8 33 -15
62 -17 43 -4 50 -2 45 11 -3 10 -1 13 6 8 8 -5 10 -1 5 10 -5 13 -3 15 7 9 9
-6 11 -4 5 4 -4 7 -1 29 8 49 8 21 40 115 71 211 50 152 59 189 66 292 10 129
17 169 31 169 8 0 14 -32 10 -54 -3 -16 21 -56 31 -50 4 3 17 -14 28 -38 11
-24 18 -32 15 -18 -5 21 -4 22 5 7 6 -9 10 -25 9 -35 -2 -29 1 -46 8 -39 11
12 32 -28 33 -63 0 -41 15 -100 37 -153 12 -28 13 -41 5 -49 -8 -8 -9 -5 -6 9
3 12 2 23 -3 26 -5 3 -7 -22 -5 -55 2 -37 0 -58 -6 -54 -6 3 -8 -2 -6 -12 10
-36 -79 -92 -146 -92 -21 0 -29 -6 -32 -25 -3 -13 -2 -22 2 -20 4 3 19 -4 33
-15 14 -11 33 -20 44 -19 13 1 11 3 -7 9 l-25 8 26 1 c14 1 29 -2 33 -6 13
-13 41 -12 79 2 25 10 37 11 37 4 0 -7 10 -9 24 -5 14 3 28 1 31 -4 4 -6 16
-8 26 -5 11 4 28 1 37 -6 9 -7 14 -9 10 -5 -4 5 0 15 10 22 13 10 17 28 18 88
0 42 -3 76 -7 76 -3 0 -10 42 -13 93 -10 120 -42 307 -61 353 -18 44 -18 47
-2 37 6 -4 1 7 -13 24 -14 17 -27 29 -29 27 -2 -2 4 -14 15 -26 l19 -23 -22
18 c-21 18 -40 63 -22 51 6 -3 9 13 8 41 -2 25 -7 49 -12 52 -6 4 -7 0 -2 -8
6 -11 4 -10 -8 1 -12 12 -16 41 -18 132 -1 65 1 121 6 125 4 5 5 2 0 -6 -5 -9
-4 -12 3 -7 6 4 8 14 5 23 -4 9 -2 14 3 11 13 -8 17 130 5 170 -5 18 -6 30 -1
27 10 -6 20 19 20 53 0 21 -2 24 -10 12 -17 -26 -11 2 24 110 32 100 34 103
42 70 6 -28 9 -30 14 -15 4 12 12 -14 20 -70 24 -166 24 -192 1 -221 -12 -15
-21 -32 -21 -38 1 -6 7 0 15 14 19 33 19 22 0 -23 -8 -19 -15 -51 -17 -71 -1
-21 -6 -40 -10 -42 -4 -3 -8 -11 -8 -17 0 -7 4 -6 10 3 8 12 10 10 10 -10 0
-20 2 -22 10 -10 8 13 10 13 10 -2 0 -9 -6 -18 -13 -21 -7 -3 -2 -9 13 -15 14
-6 19 -11 11 -11 -8 -1 -12 -4 -9 -7 6 -6 68 23 68 32 0 2 -10 -1 -22 -7 -19
-9 -21 -9 -11 1 7 7 21 14 32 15 42 3 47 18 39 117 -4 51 -6 100 -3 108 2 8 9
76 15 150 6 74 13 144 16 155 4 16 3 17 -5 5 -7 -11 -10 -6 -9 18 1 18 -3 36
-7 40 -4 4 -5 -3 -2 -16 3 -12 1 -20 -4 -16 -5 3 -9 14 -9 24 0 10 -5 22 -10
25 -6 4 -7 13 -1 23 9 19 7 50 -5 60 -4 4 -4 -2 0 -13 5 -13 4 -16 -2 -10 -5
6 -15 28 -22 50 -7 22 -24 61 -37 88 -14 26 -22 54 -19 63 4 10 2 13 -6 8 -7
-5 -9 -2 -5 8 3 9 -3 24 -16 35 -29 27 -52 40 -43 25 5 -8 2 -10 -8 -6 -9 3
-13 11 -9 17 3 6 1 7 -6 3 -15 -10 -113 22 -128 42 -14 17 -17 62 -6 100 4 16
8 20 13 11 5 -7 7 -2 7 14 -1 14 -6 23 -10 20 -5 -3 -7 22 -5 55 2 35 -1 58
-6 54 -5 -3 -7 2 -3 11 4 10 2 16 -6 14 -7 -1 -11 3 -10 9 1 7 -6 10 -20 7
-18 -4 -19 -3 -7 6 9 7 10 11 3 11 -6 0 -15 -5 -18 -10 -5 -8 -11 -8 -20 0
-20 16 -134 9 -148 -10z" />
    </g>
</svg>
